<?xml version="1.0" encoding="utf-8"?>
<!-- Generator: Adobe Illustrator 16.0.0, SVG Export Plug-In . SVG Version: 6.00 Build 0)  -->
<!DOCTYPE svg PUBLIC "-//W3C//DTD SVG 1.1//EN" "http://www.w3.org/Graphics/SVG/1.1/DTD/svg11.dtd">
<svg version="1.1" id="Calque_1" xmlns="http://www.w3.org/2000/svg" xmlns:xlink="http://www.w3.org/1999/xlink" x="0px" y="0px"
	 width="432px" height="432px" viewBox="0 0 432 432" enable-background="new 0 0 432 432" xml:space="preserve">
<g>
	<path d="M367.794,187.869c-1.886-3.297-4.586-5.554-8.077-6.994c-0.559-0.23-1.12-0.433-1.684-0.609
		c0.431-0.404,0.85-0.83,1.253-1.28c2.521-2.812,3.974-6.017,4.242-9.805c0.338-4.78-0.545-9.196-3.879-13.554
		c-3.326-3.514-7.27-7.076-13.23-6.898c-0.687,0.021-0.986-0.121-1.041-0.921c-0.38-5.538-2.282-10.58-4.937-15.419
		c-2.416-4.404-5.802-7.984-9.082-11.701c-2.894-4.024-5.63-8.122-9.386-11.458c-4.128-3.665-8.619-6.642-13.934-8.245
		c-0.768-0.231-0.839-0.555-0.667-1.22c1.499-5.771-1.096-10.409-3.782-14.433c-3.507-4.22-7.616-6.064-12.351-6.798
		c-3.753-0.581-7.202,0.122-10.503,1.954c-0.529,0.293-1.037,0.606-1.527,0.937c-0.046-0.589-0.119-1.182-0.219-1.778
		c-0.627-3.724-2.227-6.859-5.021-9.43c-3.525-3.245-7.529-5.308-13.015-5.418c-4.821,0.409-10.065,1.271-13.642,6.042
		c-0.412,0.55-0.709,0.695-1.369,0.239c-4.567-3.156-9.694-4.812-15.134-5.753c-4.949-0.857-9.859-0.442-14.81-0.195
		c-4.951-0.247-9.861-0.662-14.811,0.195c-5.439,0.941-10.566,2.598-15.133,5.753c-0.66,0.456-0.957,0.311-1.37-0.239
		c-3.577-4.771-8.821-5.633-13.642-6.042c-5.486,0.11-9.489,2.173-13.015,5.418c-2.794,2.571-4.395,5.707-5.021,9.43
		c-0.1,0.596-0.172,1.188-0.219,1.778c-0.49-0.331-0.998-0.644-1.527-0.937c-3.302-1.832-6.75-2.535-10.503-1.954
		c-4.735,0.733-8.844,2.578-12.351,6.798c-2.686,4.024-5.281,8.662-3.782,14.433c0.173,0.665,0.101,0.988-0.667,1.22
		c-5.315,1.603-9.807,4.58-13.934,8.245c-3.756,3.335-6.493,7.433-9.386,11.458c-3.279,3.716-6.666,7.297-9.082,11.701
		c-2.655,4.839-4.557,9.881-4.937,15.419c-0.055,0.8-0.354,0.942-1.041,0.921c-5.96-0.178-9.904,3.385-13.23,6.898
		c-3.333,4.358-4.218,8.774-3.879,13.554c0.269,3.788,1.722,6.994,4.242,9.805c0.404,0.45,0.822,0.876,1.253,1.28
		c-0.564,0.176-1.126,0.379-1.685,0.609c-3.491,1.439-6.191,3.697-8.077,6.994c-2.379,4.159-3.499,8.521-2.386,13.894
		c1.472,4.609,3.479,9.53,8.926,11.956c0.628,0.279,0.836,0.537,0.538,1.282c-2.061,5.154-2.534,10.522-2.242,16.034
		c0.266,5.016,1.763,9.711,3.105,14.482c0.861,4.881,1.549,9.761,3.486,14.396c2.128,5.093,4.884,9.724,8.977,13.474
		c0.591,0.542,0.516,0.864,0.071,1.388c-3.855,4.549-3.528,9.854-2.855,14.645c1.329,5.324,4.23,8.768,8.178,11.483
		c3.129,2.152,6.541,3.015,10.311,2.797c0.604-0.035,1.197-0.096,1.782-0.182c-0.214,0.551-0.406,1.116-0.574,1.697
		c-1.051,3.627-0.97,7.146,0.432,10.675c1.769,4.453,4.481,8.048,9.375,10.528c4.521,1.723,9.62,3.221,14.913,0.475
		c0.61-0.317,0.94-0.319,1.337,0.378c2.745,4.825,6.647,8.542,11.138,11.75c4.087,2.919,8.692,4.676,13.259,6.602
		c4.354,2.37,8.598,4.875,13.428,6.25c5.309,1.512,10.647,2.244,16.131,1.382c0.792-0.125,0.997,0.136,1.13,0.81
		c1.153,5.851,5.503,8.902,9.669,11.363c4.99,2.281,9.493,2.16,14.077,0.766c3.634-1.105,6.436-3.235,8.616-6.318
		c0.349-0.494,0.671-0.996,0.969-1.507c0.298,0.511,0.62,1.013,0.969,1.507c2.18,3.083,4.982,5.213,8.615,6.318
		c4.585,1.394,9.087,1.515,14.077-0.766c4.166-2.46,8.517-5.512,9.669-11.363c0.133-0.674,0.337-0.935,1.13-0.81
		c5.483,0.862,10.822,0.129,16.131-1.382c4.831-1.375,9.075-3.88,13.428-6.25c4.567-1.926,9.172-3.682,13.259-6.602
		c4.492-3.208,8.394-6.925,11.139-11.75c0.396-0.697,0.728-0.695,1.337-0.378c5.293,2.746,10.392,1.248,14.913-0.475
		c4.895-2.48,7.607-6.075,9.375-10.528c1.402-3.529,1.483-7.048,0.432-10.675c-0.168-0.581-0.36-1.146-0.574-1.697
		c0.585,0.085,1.179,0.147,1.782,0.182c3.77,0.218,7.182-0.645,10.311-2.797c3.948-2.715,6.85-6.159,8.178-11.483
		c0.673-4.792,1-10.096-2.855-14.645c-0.444-0.524-0.52-0.846,0.071-1.388c4.093-3.75,6.849-8.38,8.977-13.474
		c1.937-4.634,2.625-9.514,3.486-14.396c1.342-4.771,2.839-9.466,3.105-14.482c0.292-5.512-0.182-10.88-2.242-16.034
		c-0.297-0.745-0.09-1.002,0.538-1.282c5.447-2.426,7.455-7.347,8.927-11.956C371.293,196.391,370.173,192.028,367.794,187.869z
		 M307.942,102.509c3.243,0.567,6.031,2.178,8.743,3.916c5.915,3.791,10.057,9.205,13.878,14.899
		c4.701,4.993,9.058,10.235,11.438,16.845c1.091,3.03,2.041,6.107,1.872,9.395c-0.035,0.68-0.064,1.447-0.772,1.758
		c-1.389,0.61-2.635,1.438-3.882,2.279c-0.591,0.399-0.796,0.203-0.803-0.495c-0.028-2.536-0.23-5.067-0.911-7.514
		c-1.836-6.607-3.996-13.079-7.903-18.833c-0.393-0.578-0.775-1.162-1.15-1.751c-0.491-0.498-0.976-1-1.451-1.511
		c-4.74-5.09-10.568-8.635-16.602-11.896c-2.234-1.208-4.657-1.968-7.123-2.559c-0.679-0.163-0.824-0.406-0.304-0.894
		c1.098-1.028,2.182-2.059,3.086-3.278C306.517,102.25,307.271,102.392,307.942,102.509z M334.64,164.639
		c0.861,3.566,2.9,5.996,6.453,7.113c3.802,1.195,7.291,1.212,9.851-2.465c0.531-0.763,0.961-1.596,1.445-2.393
		c0.146-0.24,0.064-0.742,0.494-0.652c0.329,0.069,0.349,0.487,0.314,0.793c-0.287,2.539-1.189,4.675-3.562,6.033
		c-1.85,1.059-3.883,0.959-5.863,1.302c-3.513,0.608-5.971-1.007-8.084-3.334c-0.42-0.624-0.795-1.123-1.11-1.658
		c-1.926-3.277-2.983-6.793-3.078-10.621c-0.125-5.024-0.866-10.027-0.705-15.058c0.181-5.648-1.018-11.002-2.997-16.242
		c-0.375-0.994-0.821-1.953-1.29-2.899c-0.818-0.668-1.654-1.316-2.54-1.903c-4.667-3.095-9.621-5.455-15.167-6.536
		c-4.941-0.963-9.653-2.798-14.524-4.038c-3.71-0.944-6.903-2.757-9.668-5.364c-0.452-0.426-0.855-0.902-1.371-1.451
		c-1.798-2.579-2.825-5.334-1.451-8.624c0.774-1.854,1.129-3.859,2.573-5.427c1.852-2.011,4.135-2.416,6.674-2.13
		c0.306,0.034,0.709,0.147,0.703,0.482c-0.008,0.439-0.479,0.248-0.745,0.336c-0.884,0.294-1.792,0.528-2.655,0.876
		c-4.154,1.677-4.914,5.083-4.595,9.055c0.298,3.713,2.213,6.241,5.499,7.874c2.982,1.483,5.99,1.506,9.232,0.879
		c3.363-0.649,6.712,0.102,9.86,1.471c6.64,2.889,12.493,6.934,17.587,12.082c0.532,0.538,1.067,1.072,1.603,1.606
		c0.402,0.641,0.804,1.282,1.21,1.92c3.886,6.112,6.526,12.719,7.865,19.834c0.635,3.374,0.622,6.806-0.76,9.94
		C334.505,158.464,333.858,161.401,334.64,164.639z M345.198,163.155c0.471,0.195,1.396-0.069,1.353,0.621
		c-0.046,0.754-0.984,0.806-1.608,0.996c-0.848,0.256-1.631,0.033-2.357-0.47c-2.058-1.425-2.467-4.238-1.123-6.357
		c1.907-3.006,7.689-2.9,9.729-1.178c1.685,1.423,3.1,2.976,4.151,4.962c2.291,4.331,1.627,9.556-1.717,13.134
		c-1.441,1.543-3.093,2.753-4.83,3.899c-3.448,2.275-7.085,1.912-10.552,0.354c-2.346-1.054-4.362-2.799-5.981-4.9
		c-1.665-2.206-3.055-4.581-4.031-7.166c-2.176-5.76-2.757-11.809-2.916-17.89c-0.124-4.741-0.54-9.408-1.72-14.02
		c-0.582-2.276-1.191-4.542-1.828-6.801c-2.062-1.123-4.135-2.221-6.224-3.295c-4.234-2.177-8.691-3.621-13.286-4.797
		c-5.894-1.508-11.662-3.42-16.792-6.823c-2.303-1.527-4.309-3.41-6.089-5.525c-1.688-2.045-2.94-4.4-3.446-6.922
		c-0.748-3.727-0.293-7.354,2.692-10.208c1.503-1.438,3.051-2.779,4.876-3.841c4.232-2.464,9.474-1.948,13.187,1.25
		c1.703,1.466,2.901,3.191,3.914,5.151c1.226,2.372,0.042,8.033-3.313,9.223c-2.365,0.839-5.016-0.187-5.948-2.51
		c-0.329-0.82-0.372-1.633,0.066-2.403c0.323-0.567,0.583-1.469,1.328-1.347c0.682,0.112,0.219,0.955,0.305,1.457
		c0.267,1.57,1.514,2.954,2.877,3.046c1.643,0.111,2.962-0.873,3.391-2.599c0.51-2.055,0.406-4.02-0.986-5.765
		c-2.379-2.981-5.103-5.233-9.244-5.168c-3.272,0.051-6.736,2.131-8.083,5.141c-0.89,1.991-1.716,4.013-1.913,6.199
		c-0.292,3.241,1.198,5.891,3.243,8.168c3.159,3.519,7.139,5.758,11.735,6.937c3.968,1.018,7.922,2.091,11.859,3.223
		c1.898,0.546,3.858,0.751,5.755,1.348c5.057,1.591,9.548,4.076,13.689,7.196c2.12,4.732,3.543,9.663,3.97,14.947
		c0.16,1.982-0.076,3.938,0.033,5.911c0.228,4.09,0.394,8.184,0.503,12.279c0.126,4.743,1.425,9.122,4.151,12.985
		c1.766,2.5,4.018,4.543,7.242,4.979c2.175,0.294,4.33-0.061,6.469-0.486c3.234-0.643,6.033-3.557,6.811-6.736
		c0.985-4.023-0.605-7.18-2.981-10.163c-1.392-1.746-3.284-2.284-5.401-2.244c-1.777,0.034-3.03,1.101-3.288,2.728
		C342.655,161.021,343.728,162.546,345.198,163.155z M187.187,72.108c2.465-2.182,5.463-3.358,8.513-4.395
		c6.651-2.26,13.466-2.123,20.301-1.561c6.834-0.563,13.649-0.7,20.301,1.561c3.05,1.037,6.047,2.212,8.512,4.395
		c0.51,0.451,1.091,0.952,0.893,1.7c-0.389,1.467-0.519,2.957-0.638,4.456c-0.057,0.711-0.338,0.749-0.888,0.32
		c-2-1.56-4.104-2.979-6.442-3.973c-6.311-2.684-12.716-5.031-19.651-5.563c-0.696-0.053-1.392-0.119-2.086-0.192
		c-0.695,0.073-1.391,0.139-2.086,0.192c-6.935,0.532-13.34,2.878-19.652,5.563c-2.337,0.994-4.442,2.414-6.442,3.973
		c-0.55,0.429-0.832,0.391-0.888-0.32c-0.119-1.499-0.25-2.989-0.639-4.456C186.096,73.061,186.677,72.56,187.187,72.108z
		 M193.333,76.511c6.398-3.39,13.211-5.445,20.411-6.218c0.752-0.081,1.504-0.165,2.256-0.251c0.751,0.086,1.503,0.17,2.255,0.251
		c7.201,0.773,14.013,2.828,20.411,6.218c3.033,1.606,5.709,3.757,7.298,6.792c1.532,2.925,3.425,5.262,6.443,6.669
		c3.326,1.55,6.496,1.471,9.584-0.61c3.305-2.228,5.494-4.945,4.215-9.239c-0.265-0.891-0.648-1.747-0.97-2.622
		c-0.097-0.263-0.54-0.513-0.202-0.792c0.259-0.214,0.599,0.031,0.816,0.249c1.806,1.807,2.915,3.844,2.496,6.546
		c-0.326,2.106-1.671,3.634-2.638,5.396c-1.715,3.125-4.51,4.041-7.647,4.242c-0.75-0.061-1.375-0.079-1.989-0.167
		c-3.764-0.537-7.171-1.903-10.223-4.215c-4.005-3.035-8.378-5.575-12.212-8.837c-4.304-3.663-9.237-6.064-14.567-7.784
		c-1.011-0.326-2.039-0.575-3.071-0.798c-1.033,0.223-2.061,0.472-3.071,0.798c-5.331,1.72-10.263,4.121-14.567,7.784
		c-3.833,3.263-8.207,5.803-12.212,8.837c-3.052,2.313-6.458,3.678-10.223,4.215c-0.614,0.087-1.239,0.106-1.988,0.167
		c-3.137-0.202-5.932-1.117-7.647-4.242c-0.967-1.762-2.313-3.289-2.638-5.396c-0.418-2.702,0.689-4.739,2.496-6.546
		c0.218-0.218,0.557-0.463,0.815-0.249c0.338,0.28-0.104,0.529-0.202,0.792c-0.321,0.875-0.705,1.73-0.97,2.622
		c-1.279,4.294,0.91,7.011,4.215,9.239c3.088,2.082,6.259,2.161,9.584,0.61c3.019-1.407,4.912-3.744,6.443-6.669
		C187.625,80.268,190.301,78.117,193.333,76.511z M253.656,80.442c0.921,1.008,2.781,1.12,4.175,0.351
		c0.446-0.247,0.816-1.134,1.329-0.671c0.561,0.507,0.016,1.272-0.225,1.878c-0.328,0.823-0.991,1.296-1.837,1.55
		c-2.397,0.72-4.852-0.713-5.67-3.085c-1.161-3.365,2.526-7.821,5.145-8.342c2.164-0.43,4.26-0.568,6.468-0.151
		c4.814,0.909,8.486,4.686,9.198,9.531c0.308,2.089,0.224,4.135,0.037,6.207c-0.371,4.115-2.923,6.732-6.303,8.471
		c-2.287,1.177-4.909,1.666-7.561,1.622c-2.763-0.074-5.486-0.468-8.116-1.316c-5.86-1.89-10.951-5.208-15.805-8.875
		c-3.784-2.859-7.692-5.443-12.033-7.396c-2.143-0.963-4.294-1.9-6.457-2.812c-2.164,0.912-4.315,1.848-6.458,2.812
		c-4.341,1.953-8.25,4.538-12.034,7.396c-4.854,3.667-9.945,6.985-15.805,8.875c-2.629,0.848-5.353,1.242-8.116,1.316
		c-2.651,0.044-5.273-0.444-7.56-1.622c-3.379-1.739-5.932-4.356-6.302-8.471c-0.187-2.071-0.271-4.118,0.036-6.207
		c0.713-4.845,4.384-8.622,9.199-9.531c2.208-0.417,4.304-0.279,6.467,0.151c2.619,0.521,6.306,4.977,5.145,8.342
		c-0.818,2.372-3.273,3.805-5.67,3.085c-0.847-0.254-1.509-0.727-1.837-1.55c-0.242-0.606-0.786-1.372-0.225-1.878
		c0.512-0.463,0.882,0.424,1.329,0.671c1.394,0.77,3.254,0.658,4.175-0.351c1.111-1.216,1.165-2.86,0.083-4.271
		c-1.289-1.681-2.89-2.824-5.122-2.823c-3.814,0.001-7.273,0.727-9.805,4.005c-2,2.59-2.534,6.596-1.02,9.524
		c1.001,1.938,2.068,3.844,3.654,5.36c2.352,2.249,5.353,2.736,8.408,2.558c4.721-0.276,8.954-1.992,12.741-4.85
		c3.27-2.467,6.574-4.89,9.914-7.262c1.61-1.144,2.993-2.548,4.642-3.659c4.397-2.962,9.14-4.923,14.162-6.216
		c5.021,1.293,9.764,3.254,14.161,6.216c1.649,1.111,3.032,2.515,4.642,3.659c3.339,2.372,6.644,4.795,9.914,7.262
		c3.787,2.858,8.02,4.574,12.74,4.85c3.056,0.179,6.057-0.309,8.409-2.558c1.586-1.517,2.652-3.423,3.653-5.36
		c1.514-2.929,0.98-6.934-1.02-9.524c-2.531-3.278-5.99-4.003-9.804-4.005c-2.232-0.001-3.833,1.143-5.122,2.823
		C252.491,77.582,252.544,79.226,253.656,80.442z M90,138.169c2.38-6.61,6.736-11.853,11.438-16.845
		c3.821-5.694,7.963-11.108,13.878-14.899c2.711-1.738,5.5-3.349,8.743-3.916c0.67-0.117,1.424-0.259,1.885,0.362
		c0.904,1.219,1.988,2.25,3.086,3.278c0.521,0.487,0.375,0.731-0.304,0.894c-2.466,0.591-4.889,1.352-7.123,2.559
		c-6.033,3.261-11.862,6.806-16.602,11.896c-0.476,0.511-0.96,1.014-1.451,1.511c-0.375,0.589-0.758,1.173-1.15,1.751
		c-3.908,5.753-6.067,12.225-7.904,18.833c-0.68,2.447-0.882,4.978-0.91,7.514c-0.008,0.698-0.212,0.894-0.804,0.495
		c-1.246-0.842-2.493-1.669-3.882-2.279c-0.708-0.311-0.737-1.078-0.772-1.758C87.96,144.276,88.91,141.199,90,138.169z
		 M143.663,90.78c-0.862-0.348-1.77-0.582-2.654-0.876c-0.267-0.088-0.737,0.103-0.745-0.336c-0.006-0.335,0.397-0.448,0.703-0.482
		c2.539-0.286,4.823,0.119,6.674,2.13c1.444,1.568,1.799,3.573,2.573,5.427c1.375,3.29,0.347,6.045-1.451,8.624
		c-0.515,0.548-0.919,1.025-1.371,1.451c-2.766,2.607-5.958,4.42-9.669,5.364c-4.871,1.239-9.583,3.074-14.524,4.038
		c-5.547,1.081-10.5,3.44-15.167,6.536c-0.885,0.587-1.721,1.235-2.539,1.903c-0.47,0.946-0.915,1.905-1.291,2.899
		c-1.979,5.239-3.177,10.593-2.997,16.242c0.161,5.031-0.58,10.034-0.704,15.058c-0.095,3.828-1.152,7.343-3.079,10.621
		c-0.314,0.535-0.689,1.034-1.109,1.658c-2.113,2.327-4.572,3.942-8.084,3.334c-1.98-0.343-4.014-0.243-5.864-1.302
		c-2.373-1.357-3.275-3.494-3.562-6.033c-0.035-0.306-0.015-0.724,0.314-0.793c0.43-0.09,0.349,0.412,0.494,0.652
		c0.483,0.797,0.913,1.63,1.444,2.393c2.56,3.677,6.049,3.66,9.851,2.465c3.553-1.117,5.591-3.546,6.453-7.113
		c0.782-3.237,0.135-6.174-1.197-9.196c-1.382-3.134-1.395-6.567-0.76-9.94c1.339-7.116,3.979-13.723,7.865-19.834
		c0.406-0.638,0.809-1.279,1.21-1.92c0.536-0.534,1.07-1.069,1.603-1.606c5.094-5.148,10.947-9.193,17.587-12.082
		c3.147-1.37,6.497-2.121,9.86-1.471c3.242,0.626,6.25,0.604,9.231-0.879c3.286-1.633,5.201-4.161,5.499-7.874
		C148.577,95.863,147.817,92.458,143.663,90.78z M132.696,98.193c0.428,1.726,1.748,2.709,3.391,2.599
		c1.363-0.092,2.61-1.476,2.877-3.046c0.085-0.502-0.377-1.345,0.304-1.457c0.746-0.122,1.005,0.78,1.328,1.347
		c0.439,0.77,0.396,1.583,0.066,2.403c-0.932,2.323-3.583,3.349-5.947,2.51c-3.355-1.19-4.539-6.852-3.314-9.223
		c1.012-1.96,2.211-3.685,3.914-5.151c3.713-3.197,8.954-3.713,13.187-1.25c1.825,1.062,3.373,2.403,4.875,3.841
		c2.986,2.855,3.44,6.482,2.693,10.208c-0.505,2.522-1.759,4.876-3.446,6.922c-1.78,2.115-3.787,3.998-6.089,5.525
		c-5.131,3.403-10.899,5.315-16.792,6.823c-4.595,1.176-9.052,2.62-13.286,4.797c-2.089,1.074-4.163,2.172-6.224,3.295
		c-0.636,2.26-1.246,4.525-1.828,6.801c-1.18,4.612-1.596,9.279-1.72,14.02c-0.159,6.081-0.74,12.13-2.916,17.89
		c-0.977,2.584-2.366,4.959-4.032,7.166c-1.619,2.101-3.635,3.846-5.981,4.9c-3.466,1.558-7.104,1.922-10.552-0.354
		c-1.736-1.146-3.388-2.355-4.83-3.899c-3.344-3.578-4.007-8.803-1.716-13.134c1.051-1.986,2.466-3.539,4.151-4.962
		c2.04-1.722,7.822-1.828,9.729,1.178c1.344,2.119,0.934,4.932-1.124,6.357c-0.726,0.503-1.509,0.727-2.357,0.47
		c-0.625-0.189-1.562-0.241-1.609-0.996c-0.043-0.689,0.882-0.425,1.353-0.621c1.471-0.609,2.543-2.134,2.33-3.482
		c-0.258-1.627-1.51-2.694-3.288-2.728c-2.117-0.04-4.01,0.498-5.4,2.244c-2.377,2.983-3.967,6.14-2.982,10.163
		c0.778,3.179,3.577,6.093,6.811,6.736c2.139,0.425,4.294,0.78,6.469,0.486c3.225-0.437,5.477-2.479,7.242-4.979
		c2.727-3.863,4.025-8.242,4.152-12.985c0.109-4.095,0.275-8.189,0.503-12.279c0.109-1.972-0.126-3.928,0.034-5.911
		c0.426-5.284,1.849-10.215,3.969-14.947c4.142-3.12,8.632-5.605,13.689-7.196c1.897-0.597,3.856-0.802,5.755-1.348
		c3.937-1.131,7.892-2.205,11.859-3.223c4.596-1.179,8.576-3.418,11.735-6.937c2.045-2.277,3.535-4.928,3.243-8.168
		c-0.197-2.186-1.022-4.208-1.913-6.199c-1.346-3.01-4.81-5.09-8.083-5.141c-4.141-0.065-6.864,2.188-9.244,5.168
		C132.29,94.173,132.186,96.138,132.696,98.193z M79.182,264.735c-3.684-5.981-5.066-12.656-6.039-19.445
		c-2.07-6.538-3.72-13.151-2.996-20.139c0.332-3.204,0.811-6.388,2.39-9.277c0.326-0.598,0.686-1.276,1.458-1.249
		c1.517,0.053,2.999-0.152,4.487-0.369c0.706-0.103,0.805,0.163,0.509,0.795c-1.075,2.296-1.992,4.665-2.44,7.165
		c-1.212,6.75-2.075,13.518-1.05,20.397c0.103,0.69,0.194,1.383,0.276,2.077c0.227,0.661,0.445,1.324,0.652,1.991
		c2.062,6.643,5.775,12.366,9.795,17.921c1.489,2.058,3.342,3.794,5.307,5.396c0.541,0.441,0.566,0.724-0.114,0.937
		c-1.435,0.45-2.859,0.909-4.203,1.614c-0.685,0.36-1.302-0.095-1.855-0.492C82.685,270.138,80.872,267.478,79.182,264.735z
		 M85.535,195.287c-2.907-2.726-6.043-4.255-9.945-2.053c-0.81,0.457-1.559,1.021-2.34,1.529c-0.235,0.153-0.38,0.641-0.728,0.373
		c-0.266-0.205-0.102-0.59,0.062-0.851c1.36-2.163,3.1-3.696,5.826-3.89c2.126-0.151,3.916,0.821,5.848,1.372
		c3.429,0.977,4.943,3.498,5.838,6.511c0.107,0.745,0.229,1.357,0.28,1.976c0.314,3.789-0.259,7.414-1.834,10.904
		c-2.068,4.58-3.571,9.409-5.899,13.873c-2.613,5.011-3.856,10.354-4.347,15.934c-0.093,1.058-0.107,2.115-0.095,3.172
		c0.447,0.957,0.919,1.903,1.462,2.816c2.862,4.814,6.301,9.089,10.83,12.47c4.034,3.012,7.483,6.71,11.334,9.939
		c2.933,2.461,5.023,5.479,6.384,9.028c0.222,0.58,0.379,1.184,0.605,1.902c0.501,3.103,0.231,6.032-2.434,8.399
		c-1.502,1.334-2.692,2.986-4.673,3.773c-2.541,1.008-4.774,0.381-6.938-0.977c-0.261-0.164-0.575-0.44-0.424-0.74
		c0.197-0.392,0.539-0.016,0.817,0.021c0.924,0.119,1.844,0.302,2.771,0.362c4.471,0.292,6.633-2.447,8.069-6.165
		c1.342-3.475,0.714-6.583-1.538-9.48c-2.043-2.63-4.743-3.955-7.936-4.798c-3.312-0.874-6.004-3.004-8.245-5.604
		c-4.729-5.483-8.248-11.667-10.604-18.516c-0.246-0.715-0.496-1.429-0.747-2.143c-0.083-0.752-0.168-1.503-0.257-2.255
		c-0.849-7.192-0.361-14.29,1.52-21.282c0.892-3.315,2.393-6.402,4.998-8.626c2.511-2.144,4.369-4.51,5.069-7.766
		C89.034,200.908,88.252,197.835,85.535,195.287z M78.107,201.251c-0.339-0.38-1.287-0.544-0.949-1.146
		c0.37-0.659,1.236-0.299,1.881-0.198c0.875,0.137,1.484,0.677,1.92,1.446c1.235,2.177,0.384,4.889-1.746,6.215
		c-3.022,1.88-8.187-0.723-9.277-3.16c-0.901-2.013-1.502-4.026-1.587-6.271c-0.185-4.896,2.68-9.316,7.245-11.089
		c1.969-0.765,3.982-1.138,6.043-1.417c4.094-0.554,7.213,1.352,9.66,4.26c1.657,1.968,2.716,4.416,3.263,7.01
		c0.543,2.71,0.765,5.453,0.523,8.206c-0.539,6.133-2.64,11.835-5.136,17.383c-1.945,4.325-3.595,8.711-4.533,13.378
		c-0.463,2.303-0.897,4.608-1.304,6.921c1.37,1.906,2.762,3.795,4.178,5.669c2.87,3.798,6.259,7.033,9.889,10.086
		c4.655,3.916,9.022,8.142,12.169,13.434c1.412,2.375,2.402,4.942,3.089,7.62c0.633,2.575,0.74,5.24,0.102,7.731
		c-0.943,3.682-2.927,6.752-6.855,8.029c-1.979,0.643-3.955,1.18-6.06,1.346c-4.882,0.383-9.381-2.356-11.339-6.847
		c-0.898-2.06-1.229-4.134-1.291-6.339c-0.075-2.669,3.448-7.255,6.987-6.873c2.495,0.27,4.438,2.344,4.27,4.842
		c-0.059,0.882-0.373,1.633-1.103,2.136c-0.537,0.37-1.162,1.071-1.781,0.637c-0.566-0.396,0.217-0.955,0.358-1.445
		c0.44-1.53-0.083-3.318-1.271-3.992c-1.433-0.813-3.047-0.499-4.182,0.87c-1.352,1.63-2.11,3.445-1.613,5.622
		c0.85,3.718,2.327,6.929,6.086,8.667c2.971,1.374,6.994,1.002,9.513-1.125c1.666-1.407,3.287-2.871,4.413-4.755
		c1.669-2.793,1.476-5.828,0.622-8.767c-1.32-4.541-3.934-8.286-7.563-11.342c-3.133-2.639-6.23-5.321-9.286-8.049
		c-1.474-1.315-3.15-2.351-4.6-3.711c-3.866-3.628-6.834-7.815-9.211-12.423c0.143-5.183,1-10.244,2.909-15.189
		c0.716-1.855,1.777-3.516,2.534-5.34c1.57-3.784,3.196-7.544,4.875-11.281c1.944-4.328,2.674-8.837,1.893-13.5
		c-0.505-3.019-1.648-5.836-4.364-7.628c-1.831-1.208-3.927-1.824-6.039-2.369c-3.192-0.824-6.978,0.587-9.059,3.114
		c-2.633,3.197-2.57,6.731-1.723,10.45c0.496,2.177,1.967,3.483,3.892,4.366c1.616,0.741,3.208,0.323,4.146-1.031
		C79.472,204.276,79.167,202.438,78.107,201.251z M183.867,346.404c-0.543,1.402-1.072,2.802-1.358,4.292
		c-0.146,0.759-0.887,0.958-1.542,1.144c-3.168,0.896-6.378,0.655-9.576,0.265c-6.973-0.849-13.054-3.93-18.968-7.402
		c-6.402-2.458-12.602-5.292-17.614-10.214c-2.298-2.257-4.488-4.617-5.763-7.653c-0.264-0.627-0.569-1.331-0.067-1.918
		c0.987-1.153,1.751-2.439,2.509-3.738c0.359-0.616,0.629-0.528,0.938,0.098c1.125,2.272,2.406,4.465,4.081,6.375
		c4.521,5.156,9.274,10.05,15.292,13.538c0.604,0.351,1.202,0.711,1.796,1.079c0.658,0.235,1.313,0.478,1.963,0.731
		c6.479,2.53,13.269,3.195,20.119,3.515c2.538,0.119,5.05-0.248,7.528-0.785C183.888,345.583,184.125,345.739,183.867,346.404z
		 M124.696,315.492c-0.393-1.308-2.02-2.216-3.609-2.127c-0.509,0.028-1.228,0.667-1.488,0.028c-0.285-0.7,0.537-1.153,1.018-1.595
		c0.653-0.599,1.455-0.738,2.328-0.6c2.472,0.392,4.062,2.748,3.77,5.24c-0.415,3.536-5.669,5.95-8.255,5.283
		c-2.136-0.551-4.084-1.336-5.893-2.67c-3.943-2.908-5.612-7.903-4.152-12.578c0.629-2.016,1.593-3.823,2.66-5.608
		c2.119-3.546,5.554-4.796,9.354-4.897c2.571-0.068,5.145,0.629,7.515,1.819c2.458,1.265,4.74,2.802,6.741,4.707
		c4.459,4.246,7.607,9.443,10.389,14.854c2.168,4.218,4.569,8.242,7.633,11.885c1.512,1.798,3.044,3.575,4.598,5.334
		c2.345,0.118,4.689,0.208,7.038,0.269c4.759,0.124,9.401-0.508,14.051-1.443c5.965-1.198,11.991-1.978,18.091-1.138
		c2.737,0.376,5.361,1.203,7.883,2.336c2.408,1.111,4.559,2.688,6.108,4.741c2.29,3.033,3.454,6.499,2.003,10.366
		c-0.73,1.948-1.542,3.828-2.726,5.577c-2.745,4.056-7.69,5.865-12.423,4.596c-2.17-0.582-3.999-1.616-5.761-2.943
		c-2.133-1.605-3.522-7.219-1.017-9.748c1.767-1.782,4.6-2.008,6.448-0.319c0.652,0.596,1.044,1.31,0.982,2.193
		c-0.045,0.651,0.113,1.576-0.612,1.79c-0.663,0.195-0.611-0.765-0.906-1.181c-0.921-1.298-2.646-2.004-3.913-1.496
		c-1.529,0.613-2.291,2.072-1.928,3.813c0.432,2.073,1.378,3.798,3.39,4.766c3.437,1.653,6.868,2.501,10.571,0.646
		c2.926-1.466,5.145-4.843,5.052-8.139c-0.062-2.18-0.196-4.36-0.966-6.415c-1.143-3.047-3.636-4.788-6.467-5.953
		c-4.373-1.799-8.931-2.09-13.583-1.158c-4.016,0.804-8.045,1.553-12.083,2.242c-1.947,0.332-3.801,0.997-5.77,1.282
		c-5.247,0.761-10.371,0.471-15.456-0.543c-3.963-3.344-7.385-7.169-10.062-11.745c-1.004-1.717-1.641-3.582-2.595-5.311
		c-1.979-3.586-3.906-7.203-5.781-10.845c-2.172-4.218-5.241-7.601-9.375-9.897c-2.675-1.487-5.591-2.35-8.686-1.344
		c-2.086,0.679-3.875,1.934-5.617,3.245c-2.635,1.982-3.892,5.822-3.214,9.024c0.858,4.052,3.66,6.206,7.096,7.862
		c2.011,0.969,3.95,0.633,5.84-0.321C124.504,318.574,125.169,317.069,124.696,315.492z M112.824,313.918
		c-0.326,0.081-0.525-0.287-0.627-0.578c-0.843-2.412-0.958-4.728,0.591-6.98c1.208-1.757,3.083-2.549,4.718-3.717
		c2.901-2.072,5.817-1.684,8.73-0.504c0.649,0.38,1.204,0.667,1.719,1.013c3.158,2.117,5.635,4.825,7.381,8.233
		c2.292,4.472,5.13,8.658,7.168,13.261c2.288,5.167,5.691,9.471,9.747,13.333c0.77,0.732,1.586,1.403,2.42,2.052
		c1.027,0.247,2.061,0.468,3.113,0.613c5.549,0.764,11.035,0.74,16.501-0.692c4.87-1.276,9.912-1.667,14.837-2.664
		c3.753-0.759,7.415-0.511,11.039,0.638c0.592,0.188,1.162,0.442,1.864,0.713c2.738,1.542,4.859,3.58,5.049,7.14
		c0.106,2.006,0.656,3.967,0.036,6.006c-0.796,2.615-2.678,3.97-5.089,4.814c-0.291,0.102-0.703,0.175-0.844-0.13
		c-0.183-0.398,0.324-0.431,0.525-0.626c0.67-0.648,1.386-1.253,2.012-1.941c3.016-3.313,2.222-6.712,0.211-10.152
		c-1.879-3.215-4.702-4.662-8.371-4.708c-3.33-0.042-6.05,1.243-8.699,3.213c-2.749,2.044-6.092,2.821-9.522,2.953
		c-7.235,0.278-14.265-0.826-21.087-3.254c-0.713-0.254-1.427-0.504-2.142-0.752c-0.64-0.403-1.28-0.806-1.923-1.205
		c-6.152-3.82-11.398-8.627-15.692-14.458c-2.036-2.764-3.513-5.862-3.628-9.286c-0.111-3.3-0.802-6.227-2.912-8.805
		c-2.323-2.839-5.214-4.144-8.9-3.608c-3.944,0.573-7.095,2.071-7.806,6.495c-0.148,0.918-0.174,1.855-0.263,2.783
		C112.959,313.396,113.25,313.813,112.824,313.918z M302.954,326.836c-1.275,3.036-3.465,5.396-5.763,7.653
		c-5.012,4.923-11.212,7.756-17.613,10.214c-5.914,3.472-11.994,6.553-18.968,7.402c-3.197,0.39-6.408,0.631-9.576-0.265
		c-0.655-0.186-1.396-0.385-1.542-1.144c-0.286-1.49-0.815-2.89-1.358-4.292c-0.258-0.665-0.021-0.821,0.661-0.673
		c2.479,0.537,4.991,0.903,7.528,0.785c6.851-0.32,13.64-0.985,20.119-3.515c0.65-0.254,1.305-0.497,1.963-0.731
		c0.594-0.368,1.192-0.729,1.796-1.079c6.017-3.488,10.77-8.382,15.292-13.538c1.675-1.91,2.955-4.103,4.081-6.375
		c0.31-0.625,0.579-0.713,0.938-0.098c0.758,1.299,1.522,2.585,2.509,3.738C303.523,325.505,303.217,326.209,302.954,326.836z
		 M239.451,348.168c-1.268-0.508-2.992,0.198-3.914,1.496c-0.295,0.416-0.244,1.376-0.906,1.181
		c-0.725-0.214-0.566-1.139-0.612-1.79c-0.061-0.884,0.331-1.597,0.983-2.193c1.848-1.689,4.681-1.462,6.448,0.319
		c2.506,2.528,1.117,8.142-1.017,9.748c-1.762,1.327-3.591,2.361-5.761,2.943c-4.732,1.27-9.678-0.54-12.422-4.596
		c-1.184-1.749-1.996-3.629-2.727-5.577c-1.451-3.868-0.287-7.333,2.003-10.366c1.55-2.052,3.7-3.63,6.108-4.741
		c2.521-1.133,5.146-1.959,7.883-2.336c6.1-0.84,12.126-0.06,18.09,1.138c4.65,0.935,9.292,1.567,14.051,1.443
		c2.348-0.061,4.693-0.151,7.038-0.269c1.554-1.76,3.085-3.537,4.598-5.334c3.064-3.644,5.464-7.667,7.633-11.885
		c2.782-5.41,5.93-10.608,10.389-14.854c2.001-1.905,4.284-3.442,6.741-4.707c2.37-1.19,4.944-1.888,7.515-1.819
		c3.8,0.101,7.235,1.351,9.354,4.897c1.067,1.786,2.03,3.593,2.66,5.608c1.46,4.675-0.209,9.669-4.152,12.578
		c-1.809,1.334-3.757,2.119-5.893,2.67c-2.585,0.667-7.841-1.748-8.255-5.283c-0.292-2.492,1.298-4.848,3.771-5.24
		c0.873-0.138,1.675,0,2.327,0.6c0.48,0.441,1.303,0.895,1.018,1.595c-0.26,0.64-0.979,0-1.488-0.028
		c-1.589-0.089-3.217,0.819-3.61,2.127c-0.474,1.578,0.192,3.083,1.779,3.884c1.89,0.955,3.829,1.291,5.839,0.321
		c3.436-1.656,6.238-3.811,7.096-7.862c0.678-3.202-0.579-7.042-3.214-9.024c-1.743-1.311-3.531-2.566-5.617-3.245
		c-3.095-1.006-6.01-0.143-8.686,1.344c-4.133,2.297-7.203,5.679-9.375,9.897c-1.875,3.642-3.801,7.259-5.781,10.845
		c-0.954,1.729-1.59,3.594-2.595,5.311c-2.676,4.576-6.098,8.401-10.062,11.745c-5.085,1.014-10.209,1.304-15.456,0.543
		c-1.968-0.285-3.823-0.95-5.77-1.282c-4.038-0.688-8.066-1.438-12.083-2.242c-4.652-0.932-9.21-0.641-13.583,1.158
		c-2.831,1.165-5.323,2.906-6.466,5.953c-0.771,2.054-0.904,4.235-0.966,6.415c-0.094,3.296,2.125,6.673,5.051,8.139
		c3.703,1.855,7.134,1.007,10.571-0.646c2.012-0.968,2.958-2.693,3.39-4.766C241.742,350.24,240.98,348.781,239.451,348.168z
		 M230.819,356.469c-0.14,0.305-0.552,0.231-0.843,0.13c-2.412-0.845-4.294-2.199-5.089-4.814c-0.621-2.04-0.07-4,0.036-6.006
		c0.189-3.56,2.311-5.598,5.049-7.14c0.702-0.271,1.272-0.525,1.864-0.713c3.624-1.149,7.286-1.397,11.04-0.638
		c4.925,0.997,9.968,1.388,14.837,2.664c5.467,1.433,10.953,1.456,16.501,0.692c1.053-0.145,2.086-0.366,3.113-0.613
		c0.834-0.649,1.651-1.319,2.42-2.052c4.057-3.862,7.459-8.166,9.748-13.333c2.038-4.603,4.876-8.789,7.168-13.261
		c1.746-3.408,4.224-6.116,7.382-8.233c0.515-0.346,1.07-0.633,1.719-1.013c2.914-1.179,5.829-1.567,8.73,0.504
		c1.636,1.167,3.511,1.96,4.719,3.717c1.549,2.252,1.435,4.569,0.591,6.98c-0.102,0.291-0.301,0.659-0.627,0.578
		c-0.426-0.105-0.135-0.522-0.162-0.801c-0.09-0.928-0.115-1.865-0.263-2.783c-0.711-4.424-3.862-5.922-7.806-6.495
		c-3.686-0.536-6.577,0.769-8.9,3.608c-2.109,2.578-2.801,5.505-2.912,8.805c-0.115,3.423-1.592,6.522-3.628,9.286
		c-4.294,5.831-9.54,10.637-15.692,14.458c-0.643,0.399-1.284,0.802-1.923,1.205c-0.714,0.249-1.428,0.499-2.141,0.752
		c-6.823,2.428-13.852,3.532-21.087,3.254c-3.43-0.131-6.774-0.908-9.522-2.953c-2.649-1.971-5.369-3.255-8.699-3.213
		c-3.669,0.046-6.491,1.493-8.371,4.708c-2.011,3.44-2.804,6.839,0.211,10.152c0.626,0.688,1.342,1.292,2.012,1.941
		C230.495,356.038,231.002,356.07,230.819,356.469z M361.853,225.151c0.724,6.988-0.927,13.601-2.996,20.139
		c-0.972,6.789-2.355,13.463-6.039,19.445c-1.689,2.743-3.502,5.403-6.178,7.322c-0.553,0.396-1.171,0.852-1.856,0.492
		c-1.343-0.705-2.767-1.164-4.202-1.614c-0.681-0.213-0.655-0.496-0.114-0.937c1.965-1.603,3.818-3.339,5.308-5.396
		c4.021-5.556,7.734-11.278,9.796-17.921c0.207-0.667,0.425-1.33,0.651-1.991c0.083-0.694,0.174-1.386,0.276-2.077
		c1.025-6.879,0.162-13.647-1.05-20.397c-0.448-2.5-1.365-4.868-2.44-7.165c-0.296-0.632-0.196-0.898,0.509-0.795
		c1.488,0.217,2.97,0.422,4.486,0.369c0.773-0.027,1.132,0.651,1.459,1.249C361.042,218.763,361.521,221.947,361.853,225.151z
		 M325.997,284.965c1.437,3.717,3.599,6.456,8.069,6.165c0.928-0.06,1.848-0.244,2.771-0.362c0.278-0.036,0.62-0.412,0.818-0.021
		c0.151,0.3-0.164,0.576-0.425,0.74c-2.163,1.358-4.396,1.985-6.937,0.977c-1.981-0.787-3.171-2.439-4.673-3.773
		c-2.666-2.368-2.936-5.296-2.434-8.399c0.226-0.718,0.383-1.322,0.605-1.902c1.361-3.55,3.45-6.567,6.384-9.028
		c3.851-3.229,7.3-6.928,11.333-9.939c4.529-3.38,7.968-7.655,10.83-12.47c0.543-0.913,1.015-1.859,1.462-2.816
		c0.012-1.057-0.002-2.114-0.095-3.172c-0.49-5.58-1.734-10.923-4.347-15.934c-2.328-4.463-3.831-9.292-5.899-13.873
		c-1.575-3.49-2.148-7.116-1.834-10.904c0.051-0.619,0.172-1.231,0.28-1.976c0.895-3.013,2.409-5.535,5.838-6.511
		c1.932-0.55,3.721-1.522,5.847-1.372c2.727,0.194,4.466,1.727,5.827,3.89c0.164,0.261,0.327,0.646,0.061,0.851
		c-0.348,0.268-0.493-0.22-0.728-0.373c-0.781-0.508-1.53-1.072-2.34-1.529c-3.902-2.202-7.038-0.673-9.945,2.053
		c-2.717,2.548-3.5,5.621-2.728,9.208c0.7,3.256,2.557,5.622,5.068,7.766c2.605,2.225,4.106,5.312,4.998,8.626
		c1.881,6.992,2.369,14.09,1.52,21.282c-0.088,0.751-0.173,1.503-0.257,2.255c-0.251,0.714-0.5,1.428-0.747,2.143
		c-2.356,6.848-5.875,13.032-10.604,18.516c-2.242,2.6-4.933,4.729-8.246,5.604c-3.192,0.843-5.892,2.168-7.936,4.798
		C325.283,278.382,324.655,281.49,325.997,284.965z M340.73,279.692c-1.135-1.369-2.75-1.683-4.183-0.87
		c-1.188,0.674-1.711,2.462-1.271,3.992c0.141,0.49,0.924,1.049,0.358,1.445c-0.619,0.434-1.244-0.267-1.781-0.637
		c-0.729-0.503-1.043-1.254-1.103-2.136c-0.168-2.498,1.775-4.572,4.27-4.842c3.539-0.383,7.063,4.204,6.988,6.873
		c-0.062,2.205-0.394,4.279-1.292,6.339c-1.958,4.491-6.456,7.23-11.339,6.847c-2.105-0.166-4.081-0.703-6.059-1.346
		c-3.929-1.277-5.912-4.348-6.856-8.029c-0.638-2.492-0.531-5.156,0.102-7.731c0.687-2.678,1.677-5.245,3.089-7.62
		c3.146-5.292,7.513-9.518,12.169-13.434c3.629-3.053,7.019-6.288,9.889-10.086c1.417-1.874,2.808-3.763,4.178-5.669
		c-0.407-2.313-0.842-4.618-1.305-6.921c-0.938-4.667-2.588-9.053-4.533-13.378c-2.495-5.548-4.597-11.25-5.135-17.383
		c-0.242-2.752-0.02-5.495,0.523-8.206c0.547-2.594,1.607-5.042,3.263-7.01c2.448-2.908,5.567-4.814,9.661-4.26
		c2.062,0.279,4.075,0.652,6.043,1.417c4.565,1.773,7.43,6.192,7.245,11.089c-0.084,2.245-0.686,4.258-1.587,6.271
		c-1.091,2.437-6.255,5.04-9.277,3.16c-2.13-1.326-2.981-4.038-1.746-6.215c0.436-0.769,1.045-1.309,1.92-1.446
		c0.645-0.101,1.512-0.461,1.881,0.198c0.338,0.603-0.61,0.766-0.95,1.146c-1.061,1.188-1.365,3.025-0.587,4.148
		c0.938,1.354,2.53,1.772,4.146,1.031c1.925-0.883,3.396-2.189,3.892-4.366c0.847-3.719,0.91-7.252-1.723-10.45
		c-2.081-2.526-5.867-3.938-9.059-3.114c-2.111,0.545-4.208,1.161-6.039,2.369c-2.716,1.792-3.858,4.61-4.364,7.628
		c-0.781,4.664-0.05,9.172,1.894,13.5c1.678,3.737,3.305,7.498,4.874,11.281c0.757,1.824,1.818,3.484,2.534,5.34
		c1.909,4.946,2.766,10.006,2.909,15.189c-2.377,4.608-5.346,8.795-9.211,12.423c-1.451,1.361-3.126,2.396-4.6,3.711
		c-3.056,2.728-6.153,5.411-9.286,8.049c-3.629,3.056-6.244,6.801-7.563,11.342c-0.854,2.939-1.047,5.974,0.622,8.767
		c1.126,1.884,2.747,3.348,4.413,4.755c2.519,2.127,6.542,2.499,9.513,1.125c3.76-1.738,5.236-4.949,6.086-8.667
		C342.84,283.138,342.082,281.323,340.73,279.692z M368.48,202.743c-0.794,1.978-1.785,3.84-2.985,5.626
		c-4.281,6.368-15.969,6.51-19.676-1.67c-1.583-3.492-0.56-8.149,2.48-10.555c0.285-0.226,0.563-0.462,0.838-0.7
		c2.404-2.082,4.635-2.326,7.425-0.809c2.039,1.108,2.8,3.86,1.606,5.809c-0.163,0.266-0.333,0.576-0.68,0.563
		c-0.379-0.015-0.414-0.389-0.547-0.667c-0.973-2.014-2.307-2.912-4.063-2.756c-1.923,0.169-3.264,1.421-3.816,3.563
		c-0.977,3.789,0.865,7.377,4.514,8.84c0.704,0.283,1.411,0.311,2.142,0.238c6.181-0.616,9.373-5.716,9.457-11.227
		c0.051-3.379-0.985-6.453-2.832-9.232c-1.006-1.514-2.315-2.711-4.073-3.472c-2.883-1.248-5.802-2.187-8.959-2.421
		c-2.022-0.149-3.819,0.114-5.659,1.128c-4.263,2.352-6.62,5.989-7.742,10.563c-0.801,3.267-0.526,6.586-0.45,9.908
		c0.1,4.358,1.9,8.203,3.252,12.208c1.33,3.939,3.512,7.497,4.823,11.44c0.884,2.661,1.621,5.351,2.122,8.101
		c0.322,1.774,0.727,3.53,1.07,5.3c-1.078,1.446-2.204,2.853-3.265,4.311c-1.644,2.261-3.474,4.364-5.426,6.378
		c-2.892,2.984-6.401,5.243-9.309,8.215c-2.956,3.022-6.246,5.705-8.228,9.588c-1.51,2.959-3.198,5.832-3.894,9.122
		c-0.974,4.608-0.429,8.907,2.392,12.875c1.218,1.713,2.722,2.73,4.61,3.473c2.945,1.159,5.983,1.58,9.122,1.706
		c1.914,0.078,3.612-0.434,5.176-1.361c2.87-1.702,5.137-4.022,6.557-7.089c2.315-5.001,1.653-10.981-3.648-14.218
		c-0.627-0.383-1.276-0.664-2.033-0.715c-3.921-0.265-7.138,2.169-7.902,6.006c-0.432,2.17,0.233,3.879,1.892,4.866
		c1.516,0.902,3.106,0.672,4.857-0.72c0.241-0.191,0.434-0.514,0.782-0.363c0.319,0.138,0.337,0.492,0.369,0.802
		c0.23,2.274-1.649,4.422-3.967,4.537c-3.172,0.156-5.077-1.032-6.339-3.951c-0.144-0.334-0.292-0.667-0.451-0.994
		c-1.695-3.487-0.596-8.127,2.345-10.587c6.889-5.761,17.359-0.562,18.452,7.033c0.307,2.129,0.392,4.237,0.249,6.363
		c-0.514,7.661-6.861,14.083-14.458,14.74c-2.391,0.207-4.647-0.133-6.874-0.749c1.096,2.033,1.929,4.158,2.26,6.534
		c1.051,7.553-3.798,15.17-11.153,17.376c-2.041,0.612-4.115,0.999-6.259,1.174c-7.648,0.624-15.047-8.426-10.963-16.425
		c1.744-3.414,6.023-5.518,9.8-4.642c0.354,0.083,0.712,0.152,1.069,0.219c3.127,0.581,4.708,2.174,5.263,5.301
		c0.404,2.285-1.272,4.596-3.541,4.877c-0.309,0.038-0.658,0.099-0.864-0.181c-0.225-0.306,0.047-0.566,0.18-0.844
		c0.968-2.017,0.838-3.619-0.378-4.896c-1.332-1.397-3.146-1.665-5.166-0.762c-3.572,1.598-5.229,5.276-4.098,9.041
		c0.218,0.726,0.637,1.297,1.15,1.823c4.336,4.448,10.313,3.764,14.674,0.394c2.674-2.067,4.431-4.794,5.452-7.97
		c0.556-1.731,0.676-3.5,0.175-5.35c-0.822-3.031-1.908-5.899-3.693-8.514c-1.144-1.674-2.47-2.915-4.411-3.721
		c-4.497-1.867-8.809-1.441-13.085,0.533c-3.053,1.41-5.478,3.695-8.027,5.826c-3.345,2.796-5.228,6.6-7.517,10.154
		c-2.251,3.496-3.672,7.42-5.938,10.904c-1.529,2.351-3.172,4.604-5.011,6.709c-1.186,1.359-2.307,2.77-3.477,4.142
		c-1.803,0.059-3.604,0.055-5.406,0.135c-2.792,0.125-5.579,0.005-8.37-0.265c-4.136-0.4-8.09-1.737-12.227-2.156
		c-4.206-0.427-8.354-1.327-12.625-0.454c-3.255,0.665-6.553,1.136-9.559,2.644c-4.21,2.112-7.231,5.218-8.576,9.897
		c-0.58,2.021-0.437,3.831,0.159,5.769c0.931,3.026,2.496,5.663,4.354,8.196c1.133,1.545,2.591,2.554,4.291,3.198
		c3.12,1.182,6.348,1.509,9.631,0.707c5.354-1.308,9.616-5.554,8.841-11.718c-0.092-0.729-0.277-1.412-0.708-2.035
		c-2.238-3.231-6.146-4.229-9.623-2.433c-1.965,1.016-2.888,2.601-2.625,4.513c0.24,1.747,1.412,2.848,3.592,3.348
		c0.3,0.069,0.673,0.019,0.772,0.386c0.09,0.335-0.174,0.57-0.397,0.788c-1.634,1.598-4.486,1.468-6.021-0.273
		c-2.099-2.383-2.358-4.613-0.863-7.419c0.17-0.321,0.339-0.644,0.496-0.973c1.67-3.5,5.983-5.533,9.739-4.767
		c8.8,1.794,11.263,13.221,6.007,18.812c-1.474,1.567-3.069,2.948-4.821,4.162c-6.31,4.375-15.288,3.417-20.538-2.114
		c-1.652-1.74-2.794-3.716-3.7-5.84c-0.906,2.124-2.049,4.1-3.7,5.84c-5.25,5.531-14.229,6.489-20.539,2.114
		c-1.751-1.214-3.346-2.595-4.82-4.162c-5.256-5.59-2.794-17.018,6.006-18.812c3.756-0.766,8.069,1.268,9.739,4.767
		c0.156,0.329,0.325,0.651,0.496,0.973c1.495,2.807,1.236,5.037-0.864,7.419c-1.534,1.741-4.386,1.871-6.021,0.273
		c-0.223-0.218-0.488-0.453-0.397-0.788c0.099-0.367,0.472-0.317,0.771-0.386c2.181-0.5,3.352-1.601,3.592-3.348
		c0.263-1.913-0.66-3.498-2.625-4.513c-3.477-1.796-7.385-0.798-9.623,2.433c-0.432,0.624-0.616,1.307-0.708,2.035
		c-0.774,6.164,3.487,10.41,8.841,11.718c3.283,0.802,6.51,0.476,9.63-0.707c1.7-0.644,3.158-1.653,4.291-3.198
		c1.858-2.533,3.423-5.17,4.354-8.196c0.596-1.938,0.739-3.749,0.159-5.769c-1.344-4.679-4.365-7.786-8.575-9.897
		c-3.006-1.508-6.304-1.979-9.56-2.644c-4.271-0.873-8.419,0.027-12.625,0.454c-4.137,0.419-8.091,1.756-12.228,2.156
		c-2.791,0.27-5.577,0.39-8.369,0.265c-1.802-0.08-3.604-0.076-5.406-0.135c-1.17-1.373-2.29-2.783-3.476-4.142
		c-1.838-2.105-3.482-4.358-5.011-6.709c-2.266-3.483-3.687-7.408-5.938-10.904c-2.289-3.554-4.171-7.358-7.517-10.154
		c-2.549-2.13-4.974-4.416-8.027-5.826c-4.276-1.975-8.589-2.4-13.085-0.533c-1.941,0.806-3.267,2.047-4.411,3.721
		c-1.786,2.614-2.872,5.482-3.693,8.514c-0.501,1.849-0.381,3.619,0.175,5.35c1.021,3.176,2.778,5.903,5.452,7.97
		c4.361,3.37,10.338,4.055,14.674-0.394c0.512-0.526,0.931-1.097,1.15-1.823c1.131-3.765-0.526-7.442-4.098-9.041
		c-2.02-0.903-3.834-0.636-5.166,0.762c-1.216,1.277-1.346,2.879-0.378,4.896c0.133,0.277,0.405,0.538,0.18,0.844
		c-0.206,0.28-0.555,0.219-0.864,0.181c-2.269-0.282-3.945-2.592-3.541-4.877c0.554-3.127,2.136-4.72,5.263-5.301
		c0.357-0.066,0.715-0.136,1.069-0.219c3.777-0.876,8.057,1.228,9.8,4.642c4.084,7.999-3.315,17.049-10.962,16.425
		c-2.145-0.175-4.218-0.562-6.259-1.174c-7.354-2.206-12.204-9.823-11.153-17.376c0.331-2.376,1.164-4.501,2.259-6.534
		c-2.226,0.616-4.483,0.956-6.873,0.749c-7.598-0.656-13.945-7.079-14.458-14.74c-0.143-2.126-0.058-4.234,0.249-6.363
		c1.094-7.595,11.563-12.794,18.453-7.033c2.941,2.459,4.04,7.1,2.345,10.587c-0.159,0.327-0.307,0.66-0.451,0.994
		c-1.262,2.919-3.167,4.107-6.339,3.951c-2.318-0.114-4.198-2.263-3.967-4.537c0.031-0.31,0.05-0.664,0.369-0.802
		c0.348-0.151,0.542,0.172,0.783,0.363c1.75,1.393,3.341,1.622,4.857,0.72c1.659-0.987,2.324-2.696,1.892-4.866
		c-0.763-3.837-3.98-6.271-7.902-6.006c-0.756,0.051-1.406,0.333-2.033,0.715c-5.301,3.237-5.964,9.217-3.649,14.218
		c1.42,3.067,3.688,5.387,6.557,7.089c1.563,0.927,3.262,1.438,5.176,1.361c3.139-0.126,6.177-0.547,9.122-1.706
		c1.887-0.743,3.392-1.759,4.61-3.473c2.82-3.968,3.365-8.268,2.392-12.875c-0.695-3.291-2.383-6.163-3.894-9.122
		c-1.981-3.883-5.271-6.566-8.227-9.588c-2.907-2.973-6.417-5.231-9.309-8.215c-1.951-2.014-3.782-4.117-5.426-6.378
		c-1.061-1.458-2.187-2.865-3.265-4.311c0.344-1.771,0.749-3.526,1.071-5.3c0.5-2.75,1.236-5.439,2.121-8.101
		c1.311-3.943,3.493-7.501,4.823-11.44c1.352-4.005,3.152-7.85,3.252-12.208c0.076-3.322,0.351-6.642-0.45-9.908
		c-1.122-4.574-3.479-8.211-7.742-10.563c-1.84-1.015-3.637-1.278-5.66-1.128c-3.157,0.234-6.076,1.173-8.959,2.421
		c-1.758,0.761-3.067,1.958-4.073,3.472c-1.847,2.779-2.883,5.853-2.832,9.232c0.084,5.511,3.275,10.611,9.457,11.227
		c0.731,0.073,1.438,0.045,2.142-0.238c3.648-1.463,5.49-5.051,4.513-8.84c-0.553-2.142-1.893-3.394-3.816-3.563
		c-1.757-0.155-3.09,0.742-4.063,2.756c-0.134,0.277-0.168,0.652-0.547,0.667c-0.347,0.014-0.518-0.297-0.68-0.563
		c-1.194-1.949-0.433-4.7,1.606-5.809c2.79-1.517,5.021-1.273,7.425,0.809c0.275,0.238,0.552,0.474,0.837,0.7
		c3.041,2.406,4.063,7.063,2.481,10.555c-3.707,8.18-15.396,8.038-19.676,1.67c-1.2-1.786-2.191-3.648-2.985-5.626
		c-2.861-7.125,0.071-15.665,6.632-19.553c2.063-1.223,4.245-1.896,6.517-2.308c-1.869-1.356-3.542-2.909-4.871-4.906
		c-4.224-6.35-3.16-15.316,2.509-20.494c1.574-1.438,3.274-2.686,5.13-3.773c6.62-3.88,17.212,1.063,17.003,10.042
		c-0.089,3.833-3.032,7.585-6.815,8.434c-0.355,0.08-0.708,0.172-1.058,0.267c-3.07,0.833-5.186,0.085-7.042-2.493
		c-1.356-1.883-0.848-4.692,1.074-5.93c0.262-0.168,0.55-0.375,0.856-0.212c0.335,0.178,0.204,0.531,0.204,0.838
		c0.003,2.237,0.815,3.624,2.465,4.247c1.807,0.682,3.557,0.135,4.984-1.555c2.524-2.989,2.422-7.022-0.23-9.923
		c-0.512-0.56-1.137-0.892-1.827-1.143c-5.836-2.126-10.925,1.083-13.392,6.012c-1.513,3.022-1.912,6.241-1.454,9.546
		c0.25,1.801,0.909,3.447,2.163,4.896c2.056,2.375,4.279,4.488,7.022,6.068c1.757,1.013,3.49,1.555,5.588,1.439
		c4.861-0.269,8.562-2.523,11.558-6.158c2.139-2.595,3.332-5.706,4.704-8.731c1.801-3.971,1.847-8.215,2.367-12.41
		c0.512-4.126,0.089-8.279,0.619-12.4c0.358-2.781,0.861-5.524,1.604-8.219c0.479-1.739,0.876-3.496,1.335-5.24
		c1.598-0.835,3.223-1.613,4.812-2.467c2.462-1.324,5.024-2.425,7.656-3.392c3.9-1.434,8.043-1.946,11.952-3.363
		c3.974-1.44,8.102-2.429,11.572-5.069c2.645-2.011,5.412-3.867,7.466-6.529c2.877-3.729,4.251-7.839,3.432-12.639
		c-0.354-2.071-1.268-3.64-2.646-5.128c-2.151-2.323-4.706-4.02-7.478-5.496c-1.691-0.9-3.443-1.177-5.254-1.02
		c-3.324,0.289-6.373,1.395-8.983,3.542c-4.256,3.501-6.254,9.176-2.882,14.393c0.398,0.617,0.862,1.152,1.521,1.527
		c3.418,1.94,7.372,1.143,9.725-1.983c1.33-1.768,1.473-3.596,0.407-5.206c-0.974-1.47-2.507-1.954-4.688-1.458
		c-0.3,0.068-0.614,0.275-0.862-0.013c-0.227-0.263-0.091-0.589,0.016-0.882c0.779-2.149,3.405-3.269,5.543-2.366
		c2.925,1.235,4.126,3.132,3.997,6.31c-0.015,0.363-0.026,0.728-0.025,1.091c0.015,3.877-2.989,7.581-6.706,8.521
		c-8.707,2.202-15.883-7.026-13.573-14.343c0.647-2.051,1.486-3.988,2.537-5.841c3.787-6.679,12.292-9.712,19.422-7.007
		c2.243,0.852,4.129,2.136,5.867,3.657c-0.105-2.307,0.066-4.583,0.8-6.868c2.331-7.261,10.004-12.02,17.587-10.816
		c2.105,0.334,4.141,0.886,6.149,1.658c7.161,2.756,9.901,14.121,2.75,19.555c-3.052,2.32-7.82,2.359-10.843-0.07
		c-0.283-0.228-0.575-0.446-0.868-0.661c-2.565-1.88-3.299-4.001-2.441-7.059c0.627-2.234,3.14-3.589,5.306-2.858
		c0.295,0.1,0.636,0.197,0.7,0.538c0.07,0.374-0.288,0.49-0.528,0.683c-1.747,1.396-2.325,2.896-1.783,4.575
		c0.593,1.837,2.112,2.865,4.323,2.927c3.911,0.109,7-2.485,7.614-6.367c0.119-0.749-0.011-1.445-0.245-2.141
		c-1.976-5.889-7.658-7.866-13.049-6.721c-3.307,0.702-6.072,2.396-8.37,4.815c-1.252,1.318-2.128,2.86-2.479,4.744
		c-0.575,3.088-0.841,6.143-0.366,9.273c0.304,2.005,0.961,3.698,2.359,5.267c3.242,3.633,7.312,5.121,12.021,5.197
		c3.363,0.055,6.538-0.952,9.76-1.766c4.227-1.067,7.574-3.678,11.178-5.887c3.545-2.173,6.527-5.092,10.081-7.248
		c2.397-1.455,4.855-2.771,7.425-3.871c1.658-0.709,3.279-1.494,4.93-2.223c1.649,0.729,3.271,1.514,4.929,2.223
		c2.57,1.1,5.028,2.417,7.426,3.871c3.553,2.155,6.536,5.075,10.081,7.248c3.604,2.209,6.951,4.82,11.178,5.887
		c3.222,0.813,6.397,1.82,9.76,1.766c4.709-0.076,8.779-1.564,12.021-5.197c1.399-1.568,2.056-3.261,2.359-5.267
		c0.475-3.13,0.209-6.185-0.366-9.273c-0.351-1.883-1.227-3.426-2.479-4.744c-2.298-2.418-5.064-4.113-8.37-4.815
		c-5.392-1.145-11.073,0.833-13.05,6.721c-0.233,0.696-0.363,1.392-0.245,2.141c0.615,3.882,3.703,6.477,7.614,6.367
		c2.211-0.062,3.73-1.09,4.323-2.927c0.542-1.678-0.036-3.178-1.783-4.575c-0.24-0.192-0.598-0.309-0.528-0.683
		c0.064-0.341,0.405-0.438,0.7-0.538c2.166-0.73,4.679,0.624,5.306,2.858c0.858,3.058,0.124,5.179-2.441,7.059
		c-0.293,0.215-0.585,0.433-0.868,0.661c-3.023,2.429-7.792,2.39-10.844,0.07c-7.15-5.434-4.41-16.798,2.751-19.555
		c2.007-0.772,4.044-1.324,6.148-1.658c7.583-1.204,15.257,3.555,17.587,10.816c0.733,2.285,0.904,4.561,0.799,6.868
		c1.738-1.521,3.625-2.806,5.868-3.657c7.13-2.705,15.635,0.328,19.422,7.007c1.051,1.854,1.889,3.79,2.537,5.841
		c2.31,7.317-4.867,16.544-13.574,14.343c-3.717-0.94-6.72-4.644-6.706-8.521c0.001-0.364-0.01-0.728-0.025-1.091
		c-0.129-3.178,1.072-5.075,3.997-6.31c2.138-0.903,4.764,0.217,5.542,2.366c0.106,0.293,0.243,0.62,0.016,0.882
		c-0.248,0.288-0.563,0.081-0.863,0.013c-2.181-0.496-3.714-0.012-4.688,1.458c-1.066,1.609-0.923,3.438,0.407,5.206
		c2.353,3.126,6.307,3.923,9.725,1.983c0.66-0.375,1.123-0.91,1.521-1.527c3.372-5.217,1.375-10.892-2.881-14.393
		c-2.61-2.147-5.659-3.253-8.983-3.542c-1.812-0.157-3.563,0.12-5.254,1.02c-2.773,1.476-5.328,3.173-7.479,5.496
		c-1.378,1.488-2.293,3.057-2.646,5.128c-0.819,4.8,0.555,8.909,3.432,12.639c2.054,2.663,4.821,4.518,7.466,6.529
		c3.47,2.64,7.598,3.628,11.572,5.069c3.909,1.417,8.052,1.929,11.952,3.363c2.632,0.967,5.194,2.068,7.656,3.392
		c1.588,0.854,3.213,1.632,4.812,2.467c0.458,1.745,0.856,3.501,1.335,5.24c0.743,2.695,1.246,5.438,1.604,8.219
		c0.53,4.122,0.107,8.274,0.619,12.4c0.52,4.195,0.565,8.439,2.366,12.41c1.373,3.026,2.565,6.136,4.705,8.731
		c2.996,3.634,6.697,5.889,11.558,6.158c2.098,0.116,3.831-0.426,5.588-1.439c2.743-1.58,4.965-3.693,7.022-6.068
		c1.254-1.448,1.913-3.095,2.163-4.896c0.458-3.305,0.058-6.523-1.455-9.546c-2.467-4.929-7.555-8.139-13.391-6.012
		c-0.69,0.251-1.315,0.583-1.827,1.143c-2.652,2.901-2.755,6.934-0.231,9.923c1.428,1.69,3.178,2.237,4.984,1.555
		c1.65-0.623,2.462-2.01,2.465-4.247c0-0.308-0.131-0.66,0.204-0.838c0.307-0.163,0.595,0.043,0.857,0.212
		c1.921,1.238,2.429,4.047,1.074,5.93c-1.856,2.578-3.972,3.326-7.042,2.493c-0.351-0.095-0.704-0.188-1.058-0.267
		c-3.783-0.849-6.726-4.601-6.815-8.434c-0.209-8.979,10.384-13.922,17.004-10.042c1.855,1.088,3.557,2.336,5.13,3.773
		c5.669,5.178,6.733,14.145,2.509,20.494c-1.329,1.997-3.001,3.55-4.871,4.906c2.272,0.411,4.453,1.084,6.517,2.308
		C368.409,187.078,371.341,195.618,368.48,202.743z"/>
	<path d="M325.324,175.083c-0.962-1.411-2.432-3.254-3.396-5.384c-1.938-4.284-2.869-8.872-3.78-13.451
		c-1.039-5.218-1.009-10.539-1.374-15.817c-0.174-2.524-0.414-5.034-0.735-7.524c-2.357-0.867-4.75-1.659-7.172-2.391
		c-5.066-1.53-10.259-2.685-15.116-4.859c-4.262-1.908-8.527-3.836-12.272-6.679c-1.862-1.414-3.333-3.256-4.495-4.508
		c-3.707-4.448-5.526-8.972-6.186-14.137c-0.052-0.404-0.091-0.802-0.118-1.194c-0.324,0.223-0.66,0.441-1.008,0.652
		c-4.449,2.705-9.12,4.103-14.909,3.978c-1.703-0.127-4.061-0.128-6.327-0.703c-4.558-1.156-8.725-3.289-12.874-5.431
		c-4.728-2.441-8.868-5.782-13.223-8.788c-2.083-1.438-4.194-2.814-6.341-4.117c-2.147,1.302-4.259,2.679-6.341,4.117
		c-4.354,3.006-8.496,6.347-13.223,8.788c-4.148,2.143-8.315,4.275-12.873,5.431c-2.266,0.575-4.624,0.575-6.327,0.703
		c-5.789,0.125-10.46-1.273-14.909-3.978c-0.348-0.211-0.684-0.429-1.008-0.652c-0.027,0.393-0.066,0.791-0.118,1.194
		c-0.659,5.165-2.479,9.689-6.186,14.137c-1.162,1.252-2.632,3.095-4.494,4.508c-3.746,2.842-8.011,4.771-12.272,6.679
		c-4.856,2.174-10.05,3.329-15.115,4.859c-2.423,0.732-4.815,1.524-7.172,2.391c-0.321,2.491-0.561,5-0.735,7.524
		c-0.365,5.279-0.335,10.599-1.374,15.817c-0.912,4.58-1.843,9.167-3.78,13.451c-0.964,2.13-2.433,3.973-3.396,5.384
		c-3.511,4.604-7.517,7.384-12.406,9.177c-0.382,0.14-0.762,0.267-1.138,0.381c0.29,0.267,0.577,0.545,0.86,0.837
		c3.627,3.736,6.03,7.979,7.195,13.65c0.255,1.689,0.779,3.987,0.723,6.325c-0.113,4.7-1.265,9.237-2.43,13.759
		c-1.329,5.152-3.664,9.933-5.625,14.847c-0.938,2.351-1.811,4.715-2.603,7.098c1.748,1.804,3.56,3.555,5.425,5.266
		c3.9,3.577,8.078,6.871,11.51,10.936c3.012,3.568,6.018,7.156,8.159,11.342c1.064,2.082,1.59,4.379,2.093,6.012
		c1.411,5.615,1.086,10.48-0.561,15.42c-0.128,0.386-0.266,0.762-0.412,1.127c0.389-0.061,0.786-0.111,1.191-0.15
		c5.182-0.507,9.998,0.26,15.159,2.885c1.479,0.854,3.603,1.877,5.396,3.378c3.604,3.019,6.434,6.748,9.242,10.479
		c3.2,4.251,5.481,9.057,8.101,13.655c1.252,2.199,2.557,4.355,3.926,6.46c2.5-0.242,5-0.566,7.5-0.958
		c5.228-0.819,10.408-2.032,15.727-2.181c4.667-0.13,9.347-0.244,13.955,0.692c2.291,0.465,4.416,1.488,6.005,2.112
		c5.27,2.398,8.872,5.685,11.707,10.052c0.221,0.342,0.43,0.683,0.625,1.025c0.194-0.342,0.403-0.684,0.625-1.025
		c2.835-4.367,6.437-7.654,11.707-10.052c1.59-0.625,3.715-1.647,6.006-2.112c4.607-0.936,9.287-0.823,13.955-0.692
		c5.319,0.148,10.499,1.361,15.727,2.181c2.5,0.392,4.999,0.716,7.499,0.958c1.37-2.105,2.674-4.262,3.927-6.46
		c2.619-4.598,4.9-9.404,8.1-13.655c2.808-3.73,5.638-7.459,9.242-10.479c1.792-1.501,3.916-2.524,5.396-3.378
		c5.161-2.625,9.976-3.392,15.159-2.885c0.405,0.039,0.802,0.089,1.191,0.15c-0.146-0.366-0.283-0.741-0.412-1.127
		c-1.647-4.94-1.971-9.805-0.561-15.42c0.503-1.633,1.028-3.931,2.093-6.012c2.142-4.186,5.147-7.774,8.16-11.342
		c3.432-4.065,7.61-7.359,11.51-10.936c1.865-1.71,3.677-3.462,5.424-5.266c-0.792-2.383-1.665-4.748-2.603-7.098
		c-1.962-4.914-4.297-9.695-5.625-14.847c-1.166-4.522-2.317-9.059-2.43-13.759c-0.056-2.337,0.468-4.636,0.723-6.325
		c1.166-5.671,3.568-9.915,7.195-13.65c0.283-0.292,0.57-0.571,0.86-0.837c-0.377-0.114-0.756-0.241-1.139-0.381
		C332.84,182.467,328.834,179.687,325.324,175.083z M328.731,207.962c0.263,3.525,1.528,6.868,2.19,10.326
		c0.847,4.429,2.958,8.41,4.547,12.573c1.281,3.354,2.833,6.606,4.001,10.004c-2.527,2.554-5.336,4.811-7.945,7.277
		c-3.239,3.061-6.868,5.732-9.552,9.354c-2.096,2.829-4.687,5.292-6.453,8.354c-4.339,7.52-5.931,15.278-3.596,23.33
		c-8.369-0.484-15.579,2.793-21.945,8.697c-2.592,2.404-4.417,5.477-6.708,8.15c-2.934,3.423-4.731,7.556-6.995,11.394
		c-1.824,3.093-3.398,6.334-5.327,9.366c-3.572-0.383-7.088-1.172-10.644-1.675c-4.412-0.624-8.763-1.795-13.269-1.636
		c-3.519,0.125-7.06-0.365-10.555,0.163c-8.585,1.296-15.643,4.889-20.481,11.734c-4.84-6.845-11.897-10.438-20.482-11.734
		c-3.495-0.528-7.036-0.038-10.554-0.163c-4.506-0.16-8.857,1.012-13.27,1.636c-3.555,0.502-7.071,1.292-10.644,1.675
		c-1.927-3.032-3.502-6.273-5.327-9.366c-2.263-3.838-4.06-7.971-6.994-11.394c-2.292-2.673-4.116-5.747-6.708-8.15
		c-6.367-5.904-13.575-9.181-21.945-8.697c2.334-8.052,0.744-15.81-3.596-23.33c-1.767-3.062-4.357-5.525-6.454-8.354
		c-2.684-3.623-6.313-6.294-9.552-9.354c-2.609-2.466-5.419-4.723-7.945-7.277c1.168-3.397,2.72-6.65,4.001-10.004
		c1.59-4.163,3.701-8.144,4.547-12.573c0.661-3.458,1.926-6.801,2.189-10.326c0.647-8.658-1.286-16.338-6.882-22.58
		c7.75-3.195,12.824-9.275,15.998-17.357c1.292-3.29,1.603-6.851,2.507-10.254c1.158-4.357,0.984-8.86,1.358-13.3
		c0.301-3.578,0.314-7.182,0.736-10.749c3.385-1.205,6.895-2.02,10.316-3.109c4.246-1.353,8.675-2.185,12.665-4.284
		c3.116-1.639,6.518-2.734,9.438-4.727c7.173-4.893,11.972-11.192,13.362-19.459c7.33,4.068,15.247,4.243,23.545,1.686
		c3.378-1.041,6.355-3.018,9.58-4.433c4.129-1.811,7.541-4.755,11.245-7.231c2.985-1.995,5.811-4.232,8.863-6.127
		c3.052,1.895,5.877,4.132,8.862,6.127c3.705,2.476,7.117,5.42,11.246,7.231c3.224,1.415,6.202,3.392,9.58,4.433
		c8.297,2.557,16.215,2.382,23.545-1.686c1.39,8.267,6.189,14.566,13.362,19.459c2.92,1.992,6.323,3.087,9.439,4.727
		c3.99,2.099,8.419,2.931,12.665,4.284c3.42,1.09,6.931,1.904,10.316,3.109c0.421,3.567,0.435,7.171,0.735,10.749
		c0.374,4.44,0.2,8.943,1.358,13.3c0.904,3.403,1.215,6.964,2.507,10.254c3.174,8.082,8.247,14.162,15.998,17.357
		C330.017,191.624,328.085,199.304,328.731,207.962z"/>
</g>
<g>
	<path d="M284.356,231.002c0.235-0.257,0.462-0.524,0.682-0.801c6.484-8.173,7.426-17.318,4.662-27.064
		c-0.411-1.448-0.993-2.827-1.629-4.186c-0.016-1.5-0.09-2.995-0.348-4.478c-1.737-9.98-6.554-17.811-15.942-22.361
		c-0.318-0.154-0.639-0.296-0.962-0.426c-0.055-0.344-0.122-0.688-0.202-1.033c-2.347-10.166-8.909-16.604-18.253-20.519
		c-1.388-0.582-2.83-0.987-4.288-1.335c-1.183-0.923-2.397-1.798-3.718-2.521c-8.886-4.864-18.011-5.98-27.423-1.477
		c-0.319,0.153-0.63,0.314-0.933,0.486c-0.303-0.172-0.614-0.333-0.933-0.486c-9.412-4.503-18.537-3.387-27.423,1.477
		c-1.32,0.723-2.536,1.598-3.718,2.521c-1.458,0.349-2.9,0.753-4.289,1.335c-9.343,3.915-15.905,10.353-18.253,20.519
		c-0.079,0.345-0.146,0.689-0.201,1.033c-0.323,0.13-0.644,0.272-0.962,0.426c-9.389,4.551-14.206,12.381-15.943,22.361
		c-0.258,1.483-0.332,2.979-0.348,4.478c-0.637,1.358-1.219,2.738-1.63,4.186c-2.765,9.746-1.822,18.891,4.662,27.064
		c0.22,0.277,0.447,0.544,0.682,0.801c-0.1,0.333-0.188,0.673-0.267,1.018c-2.296,10.178,0.823,18.826,7.543,26.407
		c0.998,1.126,2.121,2.117,3.284,3.064c0.665,1.345,1.38,2.66,2.256,3.884c5.896,8.238,13.633,13.204,24.066,13.229
		c0.354,0.001,0.705-0.01,1.051-0.033c0.198,0.286,0.409,0.567,0.63,0.843c6.526,8.141,15.231,11.094,25.349,10.567
		c1.503-0.079,2.978-0.339,4.443-0.658c1.465,0.319,2.939,0.579,4.443,0.658c10.117,0.526,18.823-2.427,25.348-10.567
		c0.222-0.276,0.432-0.557,0.63-0.843c0.348,0.023,0.698,0.034,1.052,0.033c10.434-0.026,18.17-4.991,24.066-13.229
		c0.876-1.224,1.592-2.539,2.256-3.884c1.163-0.947,2.286-1.938,3.284-3.064c6.72-7.581,9.839-16.229,7.542-26.407
		C284.545,231.675,284.456,231.335,284.356,231.002z M280.776,250.138c-0.821,1.498-1.796,3.645-3.256,5.47
		c-1.459,1.825-3.099,3.462-4.829,5.002c-1.117,2.029-2.349,3.992-3.803,5.821c-1.455,1.83-3.331,3.258-4.609,4.392
		c-4.53,3.606-9.093,5.323-14.272,5.866c-1.595,0.167-3.098,0.147-4.521-0.058c-0.727,1.242-1.648,2.429-2.773,3.571
		c-3.653,3.71-7.841,6.208-13.484,7.501c-1.683,0.293-3.969,0.869-6.307,0.865c-2.336-0.003-4.639-0.264-6.921-0.656
		c-2.283,0.392-4.585,0.653-6.922,0.656c-2.338,0.004-4.624-0.572-6.307-0.865c-5.644-1.293-9.832-3.791-13.485-7.501
		c-1.125-1.142-2.046-2.329-2.773-3.571c-1.424,0.206-2.926,0.226-4.521,0.058c-5.179-0.543-9.743-2.26-14.272-5.866
		c-1.278-1.133-3.154-2.562-4.609-4.392c-1.454-1.829-2.686-3.792-3.802-5.821c-1.73-1.541-3.37-3.178-4.829-5.002
		c-1.46-1.826-2.436-3.972-3.256-5.47c-2.508-5.219-3.166-10.05-2.543-15.22c0.191-1.592,0.545-3.053,1.063-4.395
		c-1.048-0.985-2-2.147-2.864-3.499c-2.804-4.387-4.308-9.026-4.312-14.816c0.089-1.706,0.036-4.063,0.56-6.341
		c0.523-2.277,1.29-4.463,2.18-6.602c0.126-2.313,0.384-4.615,0.9-6.894c0.517-2.28,1.587-4.381,2.247-5.957
		c2.517-5.214,5.883-8.741,10.313-11.478c1.364-0.842,2.727-1.477,4.099-1.909c0.117-1.434,0.432-2.903,0.95-4.421
		c1.681-4.928,4.371-8.995,8.894-12.609c1.39-0.994,3.199-2.504,5.307-3.516c2.107-1.011,4.294-1.774,6.521-2.412
		c1.887-1.344,3.848-2.578,5.952-3.595c2.104-1.018,4.414-1.491,6.058-1.957c5.646-1.284,10.502-0.85,15.403,0.907
		c1.51,0.542,2.854,1.211,4.049,2.014c1.193-0.803,2.539-1.473,4.048-2.014c4.901-1.757,9.758-2.191,15.404-0.907
		c1.643,0.466,3.952,0.939,6.057,1.957c2.104,1.017,4.065,2.251,5.952,3.595c2.227,0.637,4.415,1.401,6.521,2.412
		c2.108,1.012,3.918,2.522,5.307,3.516c4.523,3.614,7.213,7.681,8.895,12.609c0.518,1.518,0.833,2.987,0.95,4.421
		c1.372,0.433,2.734,1.067,4.098,1.909c4.431,2.736,7.797,6.263,10.314,11.478c0.66,1.576,1.73,3.676,2.247,5.957
		c0.517,2.279,0.775,4.581,0.9,6.894c0.891,2.139,1.657,4.325,2.181,6.602c0.523,2.279,0.471,4.636,0.56,6.341
		c-0.005,5.79-1.508,10.429-4.313,14.816c-0.863,1.351-1.815,2.514-2.864,3.499c0.518,1.342,0.871,2.803,1.063,4.395
		C283.942,240.087,283.284,244.919,280.776,250.138z"/>
	<path d="M275.84,201.853c-0.022-0.032-0.045-0.063-0.068-0.095c0.007-0.039,0.013-0.077,0.02-0.115
		c0.827-4.672,0.434-9.222-1.464-13.553c-1.228-2.804-3.025-5.257-6.097-6.331c-2.071-0.725-4.254-0.809-6.435-0.821
		c-1.286-0.007-2.577,0.337-3.756,0.936c0.846-1.016,1.469-2.198,1.748-3.454c0.473-2.128,0.877-4.275,0.631-6.456
		c-0.363-3.233-2.355-5.531-4.815-7.353c-3.8-2.813-8.149-4.21-12.888-4.443c-0.039-0.001-0.078-0.004-0.116-0.005
		c-0.026-0.029-0.052-0.059-0.078-0.088c-3.137-3.56-6.94-6.089-11.509-7.306c-2.958-0.788-5.996-0.912-8.75,0.819
		c-1.857,1.168-3.284,2.822-4.654,4.519c-0.808,1.001-1.343,2.225-1.609,3.521c-0.267-1.295-0.803-2.52-1.61-3.521
		c-1.369-1.697-2.796-3.351-4.654-4.519c-2.754-1.731-5.792-1.607-8.75-0.819c-4.569,1.217-8.373,3.746-11.51,7.306
		c-0.025,0.029-0.051,0.059-0.077,0.088c-0.039,0.001-0.078,0.004-0.116,0.005c-4.739,0.233-9.088,1.63-12.888,4.443
		c-2.46,1.821-4.452,4.119-4.815,7.353c-0.245,2.181,0.158,4.328,0.631,6.456c0.279,1.256,0.902,2.438,1.749,3.454
		c-1.179-0.599-2.47-0.943-3.756-0.936c-2.181,0.013-4.364,0.097-6.435,0.821c-3.071,1.074-4.868,3.527-6.097,6.331
		c-1.897,4.331-2.291,8.881-1.464,13.553c0.007,0.039,0.014,0.077,0.021,0.115c-0.023,0.031-0.046,0.063-0.068,0.095
		c-2.772,3.851-4.392,8.121-4.562,12.847c-0.11,3.059,0.445,6.048,2.746,8.349c1.552,1.551,3.482,2.574,5.441,3.532
		c1.156,0.564,2.468,0.814,3.79,0.786c-1.203,0.548-2.277,1.343-3.073,2.353c-1.35,1.713-2.646,3.472-3.37,5.543
		c-1.076,3.071-0.278,6.005,1.148,8.713c2.203,4.184,5.515,7.329,9.684,9.595c0.034,0.019,0.068,0.037,0.103,0.056
		c0.011,0.038,0.021,0.075,0.032,0.112c1.282,4.568,3.611,8.498,7.2,11.576c2.323,1.993,5.006,3.424,8.24,3.059
		c2.18-0.246,4.184-1.117,6.154-2.052c1.162-0.551,2.175-1.422,2.978-2.473c-0.322,1.283-0.371,2.618-0.077,3.87
		c0.498,2.124,1.065,4.233,2.232,6.091c1.73,2.756,4.521,3.961,7.528,4.535c4.645,0.886,9.169,0.257,13.54-1.589
		c0.036-0.015,0.072-0.03,0.108-0.045c0.036,0.015,0.071,0.03,0.107,0.045c4.371,1.846,8.895,2.475,13.539,1.589
		c3.007-0.574,5.798-1.779,7.528-4.535c1.167-1.858,1.735-3.967,2.232-6.091c0.293-1.252,0.245-2.587-0.077-3.87
		c0.803,1.051,1.816,1.922,2.978,2.473c1.97,0.935,3.974,1.806,6.154,2.052c3.233,0.365,5.916-1.065,8.239-3.059
		c3.589-3.079,5.918-7.008,7.2-11.576c0.01-0.037,0.021-0.075,0.032-0.112c0.034-0.019,0.068-0.037,0.103-0.056
		c4.168-2.266,7.48-5.411,9.684-9.595c1.426-2.708,2.224-5.643,1.148-8.713c-0.725-2.071-2.02-3.83-3.37-5.543
		c-0.796-1.01-1.871-1.805-3.074-2.353c1.322,0.028,2.635-0.222,3.791-0.786c1.959-0.958,3.889-1.98,5.441-3.532
		c2.301-2.3,2.856-5.29,2.746-8.349C280.232,209.974,278.613,205.703,275.84,201.853z M218.083,161.647
		c0.742-1.998,2.367-3.225,3.667-4.757c2.307-2.718,5.229-3.055,8.343-2.623c0.722,0.21,1.33,0.353,1.914,0.562
		c3.58,1.281,6.644,3.302,9.17,6.179c0.219,0.249,0.438,0.496,0.661,0.741c0.33,0.021,0.66,0.039,0.991,0.055
		c3.825,0.181,7.315,1.316,10.548,3.316c0.528,0.327,1.019,0.713,1.633,1.146c2.278,2.166,3.837,4.66,3.151,8.158
		c-0.388,1.971-0.333,4.007-1.434,5.833c-1.411,2.342-3.567,3.195-6.111,3.425c-0.307,0.027-0.725-0.002-0.786-0.332
		c-0.08-0.432,0.42-0.339,0.663-0.479c0.808-0.465,1.65-0.877,2.425-1.391c3.734-2.477,3.795-5.965,2.687-9.793
		c-1.037-3.577-3.42-5.67-6.966-6.611c-3.07-0.815-5.896-0.325-8.798,0.818c-0.915-2.981-2.294-5.497-4.845-7.389
		c-2.947-2.186-6.069-2.744-9.512-1.324c-3.684,1.52-6.374,3.743-5.981,8.206c0.081,0.926,0.285,1.841,0.425,2.763
		c0.042,0.277,0.426,0.611,0.039,0.817c-0.297,0.158-0.58-0.15-0.75-0.408C217.809,166.429,217.131,164.21,218.083,161.647z
		 M254.658,196.725c1.013,1.989,2.759,2.896,4.841,3.282c1.749,0.323,3.189-0.471,3.768-2.013c0.479-1.279-0.265-2.986-1.584-3.879
		c-0.422-0.286-1.381-0.212-1.2-0.879c0.197-0.73,1.125-0.593,1.775-0.653c0.882-0.081,1.604,0.294,2.215,0.933
		c1.73,1.809,1.568,4.647-0.174,6.453c-2.471,2.563-8.115,1.3-9.768-0.796c-1.366-1.732-2.441-3.537-3.072-5.693
		c-0.621-2.121-0.616-4.298-0.058-6.311c-2.086,0.096-4.21-0.384-6.139-1.46c-1.962-1.095-3.482-2.545-4.867-4.262
		c-1.676-2.078-1.651-7.861,1.397-9.7c2.148-1.296,4.951-0.823,6.33,1.266c0.487,0.738,0.692,1.525,0.417,2.367
		c-0.203,0.62-0.276,1.556-1.031,1.586c-0.69,0.027-0.405-0.891-0.59-1.366c-0.576-1.484-2.076-2.59-3.429-2.407
		c-1.632,0.221-2.727,1.449-2.801,3.226c-0.087,2.116,0.408,4.02,2.123,5.45c2.928,2.444,6.048,4.104,10.092,3.21
		c0.702-0.155,1.394-0.408,2.053-0.743c-0.473,0.568-0.874,1.186-1.181,1.836C252.002,189.915,252.927,193.326,254.658,196.725z
		 M273.213,207.8c2.25,3.104,2.182,7.872-0.314,10.838c-0.234,0.278-0.458,0.565-0.68,0.854c-1.938,2.522-4.075,3.208-7.113,2.282
		c-2.219-0.677-3.517-3.22-2.738-5.369c0.106-0.293,0.211-0.631,0.553-0.688c0.375-0.062,0.483,0.299,0.67,0.543
		c1.357,1.778,2.844,2.39,4.533,1.886c1.85-0.552,2.912-2.047,3.024-4.256c0.197-3.908-2.327-7.054-6.194-7.756
		c-0.746-0.135-1.444-0.021-2.146,0.197c-5.932,1.843-8.036,7.479-7.013,12.896c0.405,2.145,1.229,4.073,2.399,5.804
		c-1.805,1.051-3.384,2.432-4.68,4.188c-3.271,4.436-3.821,10.427,0.724,14.661c0.537,0.5,1.117,0.906,1.848,1.108
		c3.789,1.046,7.428-0.694,8.945-4.3c0.858-2.04,0.55-3.847-0.877-5.147c-1.304-1.187-2.909-1.281-4.903-0.268
		c-0.274,0.139-0.528,0.417-0.839,0.198c-0.285-0.199-0.232-0.549-0.201-0.859c0.23-2.274,2.503-4.002,4.797-3.649
		c3.139,0.483,4.766,2.029,5.418,5.142c0.074,0.356,0.152,0.712,0.242,1.064c0.962,3.756-1.045,8.082-4.42,9.902
		c-2.398,1.294-4.918,1.533-7.252,1.023c1.016,2.162,1.344,4.671,0.616,7.298c-1.023,3.695-4.793,6.614-8.67,6.513
		c-0.363-0.01-0.728-0.006-1.091,0c-3.18,0.058-5.049-1.186-6.219-4.138c-0.854-2.158,0.325-4.757,2.491-5.488
		c0.295-0.1,0.625-0.229,0.882,0.004c0.282,0.255,0.068,0.564-0.007,0.863c-0.544,2.169-0.096,3.713,1.352,4.72
		c1.585,1.103,3.416,1,5.213-0.29c3.178-2.282,4.064-6.217,2.201-9.678c-0.359-0.668-0.884-1.143-1.492-1.555
		c-5.14-3.489-10.858-1.62-14.455,2.557c-1.424,1.654-2.418,3.5-3.042,5.495c-1.948-0.756-4.012-1.13-6.192-1.047
		c-5.508,0.208-10.535,3.514-11.012,9.707c-0.056,0.732-0.012,1.438,0.286,2.136c1.544,3.615,5.173,5.375,8.939,4.313
		c2.129-0.601,3.351-1.969,3.477-3.895c0.115-1.76-0.812-3.073-2.847-4c-0.28-0.127-0.655-0.153-0.679-0.532
		c-0.021-0.347,0.285-0.524,0.547-0.692c1.921-1.238,4.689-0.539,5.843,1.475c1.58,2.755,1.386,4.991-0.642,7.441
		c-0.232,0.28-0.461,0.563-0.681,0.854c-2.337,3.094-6.971,4.221-10.497,2.718c-2.507-1.069-4.265-2.89-5.321-5.032
		c-1.057,2.142-2.814,3.963-5.322,5.032c-3.526,1.503-8.16,0.376-10.497-2.718c-0.219-0.291-0.449-0.573-0.681-0.854
		c-2.028-2.45-2.221-4.687-0.642-7.441c1.154-2.014,3.921-2.712,5.843-1.475c0.262,0.168,0.568,0.346,0.547,0.692
		c-0.023,0.379-0.398,0.405-0.679,0.532c-2.036,0.928-2.962,2.241-2.848,4c0.127,1.926,1.348,3.294,3.477,3.895
		c3.766,1.063,7.395-0.698,8.939-4.313c0.298-0.697,0.342-1.404,0.286-2.136c-0.477-6.193-5.503-9.499-11.011-9.707
		c-2.181-0.083-4.245,0.292-6.193,1.047c-0.624-1.994-1.618-3.841-3.042-5.495c-3.596-4.176-9.314-6.045-14.454-2.557
		c-0.608,0.413-1.133,0.887-1.492,1.555c-1.863,3.461-0.977,7.396,2.202,9.678c1.797,1.29,3.628,1.392,5.213,0.29
		c1.447-1.007,1.896-2.551,1.352-4.72c-0.075-0.298-0.289-0.608-0.007-0.863c0.257-0.233,0.587-0.104,0.882-0.004
		c2.166,0.73,3.345,3.33,2.491,5.488c-1.169,2.953-3.039,4.196-6.219,4.138c-0.363-0.006-0.728-0.01-1.091,0
		c-3.876,0.101-7.646-2.818-8.67-6.513c-0.728-2.626-0.399-5.136,0.616-7.298c-2.333,0.51-4.853,0.271-7.252-1.023
		c-3.374-1.82-5.381-6.146-4.42-9.902c0.09-0.352,0.168-0.708,0.243-1.064c0.652-3.113,2.279-4.659,5.418-5.142
		c2.293-0.353,4.565,1.375,4.796,3.649c0.031,0.31,0.084,0.66-0.2,0.859c-0.311,0.218-0.565-0.059-0.84-0.198
		c-1.994-1.014-3.599-0.919-4.902,0.268c-1.428,1.3-1.736,3.108-0.878,5.147c1.518,3.606,5.157,5.346,8.946,4.3
		c0.731-0.202,1.311-0.608,1.848-1.108c4.545-4.234,3.995-10.226,0.724-14.661c-1.295-1.757-2.875-3.137-4.68-4.188
		c1.17-1.731,1.994-3.66,2.399-5.804c1.022-5.416-1.082-11.052-7.014-12.896c-0.701-0.218-1.4-0.332-2.146-0.197
		c-3.868,0.702-6.392,3.848-6.194,7.756c0.112,2.209,1.174,3.705,3.024,4.256c1.69,0.504,3.177-0.107,4.534-1.886
		c0.187-0.245,0.295-0.605,0.67-0.543c0.343,0.056,0.448,0.395,0.553,0.688c0.779,2.149-0.518,4.691-2.737,5.369
		c-3.038,0.927-5.175,0.24-7.113-2.282c-0.222-0.288-0.446-0.575-0.68-0.854c-2.496-2.967-2.564-7.735-0.314-10.838
		c1.6-2.207,3.767-3.515,6.09-4.068c-1.853-1.507-3.237-3.625-3.722-6.308c-0.681-3.772,1.45-8.039,4.986-9.629
		c0.332-0.149,0.658-0.31,0.983-0.474c2.84-1.432,5.063-1.123,7.398,1.03c1.706,1.573,1.771,4.427,0.137,6.025
		c-0.223,0.218-0.464,0.477-0.797,0.379c-0.364-0.107-0.306-0.479-0.368-0.78c-0.451-2.191-1.525-3.387-3.266-3.666
		c-1.906-0.306-3.512,0.581-4.572,2.522c-1.873,3.435-0.964,7.365,2.216,9.675c0.614,0.446,1.293,0.646,2.019,0.754
		c6.144,0.913,10.485-3.252,11.914-8.575c0.566-2.108,0.661-4.203,0.357-6.271c2.083-0.164,4.104-0.723,6.034-1.743
		c4.872-2.577,7.966-7.736,5.709-13.523c-0.267-0.684-0.613-1.301-1.184-1.8c-2.96-2.586-6.994-2.598-9.926-0.007
		c-1.658,1.465-2.164,3.228-1.442,5.018c0.66,1.636,2.064,2.417,4.301,2.369c0.308-0.006,0.657-0.146,0.842,0.185
		c0.17,0.303-0.029,0.596-0.192,0.861c-1.194,1.949-3.991,2.52-5.904,1.207c-2.619-1.797-3.415-3.896-2.651-6.983
		c0.087-0.353,0.171-0.708,0.243-1.064c0.763-3.802,4.449-6.828,8.278-7.003c2.723-0.125,5.096,0.753,6.978,2.225
		c0.022-2.388,0.815-4.792,2.611-6.842c2.525-2.885,7.189-3.879,10.637-2.105c0.323,0.166,0.653,0.321,0.983,0.473
		c2.89,1.328,4.034,3.259,3.807,6.426c-0.166,2.314-2.356,4.146-4.625,3.864c-0.309-0.038-0.662-0.065-0.793-0.387
		c-0.144-0.351,0.184-0.538,0.381-0.774c1.432-1.719,1.697-3.304,0.829-4.839c-0.949-1.681-2.644-2.384-4.822-2.001
		c-3.854,0.677-6.359,3.838-6.183,7.765c0.034,0.757,0.301,1.413,0.669,2.048c3.117,5.373,9.08,6.17,14.133,3.968
		c2.001-0.873,3.698-2.105,5.125-3.631c1.427,1.526,3.124,2.758,5.125,3.631c5.052,2.202,11.016,1.405,14.132-3.968
		c0.369-0.635,0.635-1.291,0.669-2.048c0.177-3.927-2.329-7.088-6.183-7.765c-2.179-0.383-3.873,0.32-4.823,2.001
		c-0.867,1.535-0.602,3.121,0.83,4.839c0.197,0.236,0.524,0.423,0.38,0.774c-0.131,0.322-0.484,0.349-0.793,0.387
		c-2.268,0.282-4.459-1.549-4.625-3.864c-0.228-3.167,0.917-5.099,3.807-6.426c0.331-0.152,0.66-0.307,0.984-0.473
		c3.448-1.773,8.111-0.779,10.637,2.105c1.795,2.051,2.588,4.454,2.611,6.842c1.881-1.471,4.255-2.35,6.978-2.225
		c3.829,0.176,7.515,3.202,8.278,7.003c0.071,0.356,0.156,0.711,0.243,1.064c0.764,3.087-0.032,5.187-2.651,6.983
		c-1.913,1.313-4.71,0.742-5.905-1.207c-0.163-0.265-0.362-0.558-0.192-0.861c0.186-0.331,0.535-0.191,0.843-0.185
		c2.236,0.048,3.642-0.733,4.301-2.369c0.723-1.791,0.216-3.553-1.442-5.018c-2.932-2.591-6.965-2.579-9.925,0.007
		c-0.571,0.499-0.917,1.116-1.184,1.8c-2.257,5.787,0.837,10.946,5.709,13.523c1.929,1.021,3.951,1.579,6.034,1.743
		c-0.303,2.067-0.208,4.163,0.357,6.271c1.429,5.323,5.77,9.488,11.914,8.575c0.726-0.108,1.405-0.308,2.019-0.754
		c3.18-2.31,4.089-6.24,2.216-9.675c-1.06-1.942-2.665-2.828-4.571-2.522c-1.741,0.279-2.815,1.475-3.267,3.666
		c-0.062,0.301-0.003,0.673-0.368,0.78c-0.333,0.098-0.574-0.162-0.797-0.379c-1.634-1.598-1.569-4.452,0.137-6.025
		c2.334-2.153,4.558-2.462,7.398-1.03c0.325,0.164,0.652,0.325,0.983,0.474c3.537,1.59,5.667,5.856,4.986,9.629
		c-0.484,2.683-1.869,4.801-3.722,6.308C269.447,204.285,271.613,205.594,273.213,207.8z M262.715,225.345
		c0.559,0.452,1.188,0.835,1.861,1.142c-0.739-0.015-1.472,0.057-2.172,0.222c-4.031,0.949-6.122,3.799-7.7,7.271
		c-0.924,2.032-0.544,3.962,0.453,5.831c0.837,1.568,2.356,2.2,3.923,1.69c1.299-0.422,2.17-2.069,2.045-3.656
		c-0.04-0.508-0.695-1.212-0.062-1.487c0.694-0.3,1.166,0.511,1.617,0.982c0.614,0.639,0.771,1.438,0.652,2.313
		c-0.336,2.48-2.656,4.123-5.154,3.887c-3.544-0.334-6.076-5.534-5.467-8.134c0.502-2.147,1.243-4.113,2.536-5.951
		c1.271-1.807,2.977-3.162,4.898-3.98c-1.376-1.571-2.325-3.531-2.686-5.711c-0.368-2.217-0.182-4.309,0.297-6.462
		c0.58-2.606,5.117-6.192,8.455-4.956c2.353,0.872,3.73,3.358,2.957,5.738c-0.273,0.84-0.761,1.493-1.591,1.802
		c-0.612,0.228-1.389,0.754-1.883,0.183c-0.452-0.522,0.444-0.873,0.701-1.313c0.801-1.376,0.73-3.238-0.256-4.182
		c-1.19-1.138-2.833-1.229-4.268-0.179c-1.709,1.25-2.889,2.825-2.938,5.057C258.848,219.266,259.495,222.741,262.715,225.345z
		 M173.068,215.453c-0.049-2.232-1.229-3.807-2.938-5.057c-1.436-1.05-3.078-0.959-4.269,0.179
		c-0.987,0.944-1.057,2.806-0.256,4.182c0.256,0.44,1.152,0.791,0.701,1.313c-0.494,0.572-1.271,0.045-1.883-0.183
		c-0.831-0.309-1.318-0.961-1.591-1.802c-0.774-2.38,0.604-4.867,2.956-5.738c3.339-1.236,7.875,2.35,8.455,4.956
		c0.479,2.153,0.665,4.246,0.298,6.462c-0.361,2.18-1.311,4.14-2.687,5.711c1.921,0.818,3.627,2.173,4.898,3.98
		c1.292,1.838,2.033,3.804,2.536,5.951c0.609,2.6-1.923,7.799-5.467,8.134c-2.498,0.235-4.818-1.407-5.154-3.887
		c-0.118-0.876,0.038-1.675,0.652-2.313c0.452-0.471,0.924-1.282,1.617-0.982c0.633,0.275-0.021,0.979-0.062,1.487
		c-0.125,1.587,0.747,3.234,2.045,3.656c1.566,0.509,3.085-0.122,3.923-1.69c0.997-1.869,1.376-3.799,0.452-5.831
		c-1.578-3.472-3.669-6.322-7.7-7.271c-0.7-0.165-1.433-0.237-2.172-0.222c0.672-0.307,1.302-0.69,1.861-1.142
		C172.505,222.741,173.152,219.266,173.068,215.453z M178.226,186.171c-0.308-0.65-0.708-1.268-1.181-1.836
		c0.659,0.334,1.351,0.587,2.053,0.743c4.044,0.894,7.164-0.767,10.093-3.21c1.714-1.43,2.21-3.333,2.122-5.45
		c-0.074-1.777-1.168-3.004-2.801-3.226c-1.354-0.183-2.853,0.923-3.429,2.407c-0.185,0.475,0.1,1.394-0.59,1.366
		c-0.755-0.03-0.828-0.966-1.031-1.586c-0.275-0.842-0.07-1.629,0.417-2.367c1.379-2.089,4.182-2.563,6.33-1.266
		c3.048,1.839,3.073,7.622,1.397,9.7c-1.385,1.717-2.905,3.167-4.867,4.262c-1.929,1.077-4.054,1.557-6.139,1.46
		c0.558,2.013,0.562,4.19-0.058,6.311c-0.631,2.157-1.706,3.961-3.072,5.693c-1.653,2.096-7.297,3.359-9.768,0.796
		c-1.742-1.806-1.904-4.644-0.174-6.453c0.611-0.639,1.333-1.014,2.215-0.933c0.65,0.06,1.579-0.077,1.775,0.653
		c0.181,0.667-0.779,0.593-1.201,0.879c-1.318,0.893-2.063,2.6-1.583,3.879c0.579,1.542,2.02,2.336,3.768,2.013
		c2.082-0.385,3.828-1.292,4.841-3.282C179.073,193.326,179.998,189.915,178.226,186.171z M215.301,167.644
		c0.316-0.646,0.55-1.344,0.7-2.068c0.149,0.724,0.383,1.422,0.699,2.068c1.822,3.719,5.066,5.123,8.802,5.889
		c2.187,0.448,3.984-0.351,5.584-1.739c1.343-1.166,1.62-2.787,0.775-4.201c-0.701-1.172-2.5-1.655-4.021-1.18
		c-0.486,0.152-1.027,0.947-1.436,0.391c-0.447-0.609,0.239-1.25,0.597-1.795c0.486-0.74,1.23-1.071,2.11-1.15
		c2.493-0.225,4.611,1.672,4.937,4.16c0.463,3.529-4.043,7.155-6.713,7.14c-2.206-0.012-4.287-0.297-6.366-1.148
		c-2.045-0.837-3.745-2.199-4.97-3.89c-1.226,1.691-2.926,3.053-4.97,3.89c-2.08,0.851-4.161,1.136-6.367,1.148
		c-2.67,0.015-7.176-3.611-6.713-7.14c0.326-2.488,2.443-4.384,4.937-4.16c0.88,0.079,1.624,0.41,2.11,1.15
		c0.358,0.546,1.045,1.186,0.598,1.795c-0.409,0.557-0.95-0.239-1.437-0.391c-1.52-0.475-3.319,0.008-4.02,1.18
		c-0.845,1.414-0.567,3.036,0.776,4.201c1.599,1.388,3.397,2.187,5.584,1.739C210.234,172.767,213.478,171.362,215.301,167.644z
		 M173.84,174.425c-0.687-3.499,0.872-5.993,3.15-8.158c0.614-0.434,1.105-0.82,1.633-1.146c3.233-2,6.724-3.135,10.548-3.316
		c0.33-0.016,0.661-0.034,0.991-0.055c0.222-0.245,0.442-0.492,0.66-0.741c2.526-2.877,5.591-4.898,9.17-6.179
		c0.585-0.209,1.192-0.352,1.915-0.562c3.113-0.432,6.035-0.095,8.342,2.623c1.3,1.532,2.925,2.759,3.667,4.757
		c0.951,2.563,0.274,4.781-1.133,6.914c-0.17,0.257-0.453,0.565-0.749,0.408c-0.388-0.206-0.004-0.54,0.038-0.817
		c0.14-0.921,0.344-1.836,0.425-2.763c0.392-4.463-2.298-6.687-5.981-8.206c-3.443-1.42-6.565-0.862-9.512,1.324
		c-2.552,1.892-3.93,4.407-4.846,7.389c-2.901-1.143-5.728-1.634-8.797-0.818c-3.546,0.941-5.929,3.034-6.966,6.611
		c-1.109,3.828-1.047,7.316,2.686,9.793c0.775,0.514,1.618,0.925,2.425,1.391c0.243,0.14,0.743,0.047,0.663,0.479
		c-0.062,0.33-0.479,0.359-0.786,0.332c-2.544-0.229-4.701-1.083-6.112-3.425C174.173,178.432,174.227,176.396,173.84,174.425z
		 M163.131,225.331c-2.113-0.278-3.671-1.589-5.453-2.516c-3.164-1.645-4.142-4.418-4.414-7.55c0.044-0.75,0.048-1.375,0.122-1.992
		c0.452-3.774,1.741-7.212,3.984-10.315c0.194-0.268,0.385-0.538,0.575-0.809c-0.053-0.327-0.109-0.653-0.167-0.979
		c-0.675-3.769-0.344-7.425,0.886-11.022c0.201-0.587,0.468-1.152,0.754-1.848c1.604-2.703,3.689-4.778,7.252-4.887
		c2.008-0.062,3.98-0.567,6.005,0.099c2.597,0.854,3.909,2.767,4.699,5.196c0.095,0.293,0.159,0.707-0.148,0.84
		c-0.403,0.174-0.424-0.334-0.615-0.54c-0.633-0.684-1.222-1.414-1.895-2.055c-3.245-3.089-6.66-2.373-10.145-0.439
		c-3.257,1.806-4.767,4.595-4.896,8.262c-0.111,3.174,0.996,5.82,2.756,8.395c-2.703,1.556-4.849,3.459-6.126,6.368
		c-1.475,3.36-1.324,6.528,0.826,9.568c2.302,3.253,5.067,5.381,9.332,4.005c0.884-0.285,1.731-0.688,2.599-1.029
		c0.261-0.103,0.5-0.551,0.788-0.219c0.219,0.253-0.018,0.598-0.231,0.821C167.854,224.535,165.842,225.688,163.131,225.331z
		 M190.801,262.926c-1.535,1.479-3.531,1.879-5.367,2.695c-3.258,1.448-6.037,0.483-8.655-1.256
		c-0.56-0.503-1.045-0.896-1.481-1.337c-2.669-2.707-4.553-5.857-5.581-9.546c-0.089-0.319-0.18-0.637-0.273-0.954
		c-0.289-0.162-0.578-0.322-0.869-0.479c-3.368-1.823-6.02-4.36-8.065-7.565c-0.334-0.523-0.609-1.084-0.974-1.742
		c-1.113-2.939-1.436-5.863,0.701-8.717c1.204-1.609,2.039-3.466,3.822-4.634c2.287-1.498,4.6-1.331,6.992-0.434
		c0.289,0.108,0.652,0.316,0.564,0.64c-0.115,0.424-0.525,0.124-0.805,0.144c-0.93,0.069-1.867,0.074-2.788,0.201
		c-4.438,0.611-6.007,3.728-6.669,7.658c-0.619,3.672,0.62,6.592,3.407,8.979c2.412,2.066,5.171,2.851,8.281,3.08
		c-0.469,3.083-0.318,5.948,1.16,8.759c1.707,3.248,4.277,5.105,7.996,5.32c3.979,0.229,7.367-0.607,8.95-4.798
		c0.329-0.87,0.542-1.783,0.816-2.673c0.083-0.268-0.119-0.735,0.319-0.752c0.336-0.014,0.457,0.387,0.499,0.692
		C193.123,258.738,192.771,261.03,190.801,262.926z M189.274,248.999c-1.776-1.353-3.742-1.413-5.786-0.856
		c-1.716,0.467-2.669,1.808-2.522,3.448c0.123,1.36,1.535,2.576,3.11,2.808c0.504,0.074,1.336-0.408,1.463,0.271
		c0.139,0.743-0.757,1.022-1.316,1.358c-0.76,0.456-1.573,0.431-2.401,0.121c-2.343-0.879-3.428-3.506-2.643-5.889
		c1.115-3.381,6.747-4.692,9.146-3.521c1.982,0.968,3.733,2.127,5.238,3.797c1.479,1.641,2.42,3.605,2.791,5.661
		c1.838-0.992,3.96-1.481,6.165-1.348c2.243,0.135,4.242,0.781,6.234,1.728c2.412,1.146,4.898,6.367,2.95,9.346
		c-1.374,2.1-4.104,2.89-6.253,1.605c-0.758-0.453-1.285-1.074-1.402-1.952c-0.086-0.647-0.426-1.522,0.241-1.876
		c0.61-0.324,0.752,0.627,1.124,0.975c1.164,1.087,2.994,1.433,4.134,0.681c1.375-0.907,1.829-2.489,1.124-4.122
		c-0.839-1.944-2.112-3.445-4.276-3.989c-3.699-0.931-7.23-1.073-10.486,1.487c-0.565,0.444-1.079,0.973-1.527,1.56
		c0.179-0.717,0.272-1.448,0.267-2.167C194.621,253.983,192.307,251.311,189.274,248.999z M236.207,270.61
		c-0.899,3.45-3.386,5.021-6.378,5.983c-0.742,0.125-1.352,0.259-1.969,0.324c-3.781,0.399-7.418-0.092-10.943-1.588
		c-0.304-0.129-0.61-0.256-0.916-0.381c-0.307,0.125-0.612,0.251-0.917,0.381c-3.524,1.497-7.162,1.988-10.942,1.588
		c-0.618-0.065-1.228-0.2-1.969-0.324c-2.993-0.962-5.479-2.533-6.378-5.983c-0.507-1.944-1.438-3.754-1.239-5.877
		c0.255-2.722,1.827-4.426,4.021-5.737c0.264-0.158,0.653-0.313,0.852-0.042c0.26,0.354-0.23,0.488-0.389,0.719
		c-0.526,0.77-1.106,1.505-1.582,2.305c-2.289,3.851-0.831,7.021,1.829,9.989c2.486,2.773,5.542,3.625,9.145,2.935
		c3.119-0.598,5.453-2.266,7.571-4.555c2.118,2.289,4.451,3.957,7.571,4.555c3.604,0.69,6.659-0.161,9.145-2.935
		c2.659-2.968,4.118-6.138,1.828-9.989c-0.475-0.799-1.056-1.535-1.581-2.305c-0.158-0.231-0.649-0.365-0.39-0.719
		c0.199-0.271,0.588-0.116,0.852,0.042c2.193,1.311,3.766,3.016,4.021,5.737C237.645,266.856,236.713,268.666,236.207,270.61z
		 M236.091,258.731c-3.256-2.56-6.788-2.418-10.486-1.487c-2.165,0.544-3.438,2.045-4.276,3.989
		c-0.705,1.633-0.251,3.214,1.124,4.122c1.14,0.752,2.971,0.406,4.134-0.681c0.373-0.348,0.515-1.299,1.125-0.975
		c0.667,0.354,0.327,1.229,0.241,1.876c-0.117,0.878-0.644,1.499-1.402,1.952c-2.148,1.284-4.879,0.495-6.252-1.605
		c-1.948-2.979,0.539-8.201,2.95-9.346c1.993-0.946,3.992-1.592,6.234-1.728c2.206-0.133,4.328,0.356,6.166,1.348
		c0.371-2.055,1.312-4.02,2.791-5.661c1.504-1.669,3.256-2.829,5.237-3.797c2.399-1.171,8.032,0.14,9.146,3.521
		c0.786,2.383-0.299,5.01-2.643,5.889c-0.827,0.311-1.641,0.335-2.4-0.121c-0.56-0.336-1.456-0.615-1.317-1.358
		c0.127-0.679,0.959-0.197,1.463-0.271c1.575-0.231,2.987-1.447,3.11-2.808c0.147-1.64-0.806-2.981-2.521-3.448
		c-2.043-0.557-4.01-0.497-5.785,0.856c-3.034,2.312-5.348,4.984-5.376,9.125c-0.005,0.719,0.088,1.45,0.268,2.167
		C237.169,259.704,236.656,259.176,236.091,258.731z M271.764,234.025c2.137,2.854,1.814,5.777,0.701,8.717
		c-0.365,0.657-0.64,1.218-0.974,1.742c-2.045,3.205-4.697,5.742-8.065,7.565c-0.291,0.157-0.581,0.317-0.869,0.479
		c-0.094,0.317-0.185,0.635-0.274,0.954c-1.027,3.688-2.911,6.839-5.581,9.546c-0.436,0.442-0.921,0.834-1.481,1.337
		c-2.618,1.739-5.396,2.704-8.654,1.256c-1.836-0.816-3.833-1.216-5.368-2.695c-1.969-1.896-2.321-4.188-1.979-6.72
		c0.041-0.305,0.163-0.706,0.498-0.692c0.438,0.018,0.237,0.484,0.32,0.752c0.274,0.891,0.487,1.804,0.816,2.673
		c1.583,4.191,4.971,5.028,8.949,4.798c3.719-0.214,6.289-2.072,7.996-5.32c1.478-2.812,1.628-5.676,1.159-8.759
		c3.11-0.229,5.87-1.013,8.282-3.08c2.786-2.387,4.025-5.307,3.407-8.979c-0.662-3.93-2.231-7.047-6.669-7.658
		c-0.921-0.127-1.859-0.132-2.789-0.201c-0.279-0.021-0.689,0.28-0.805-0.144c-0.087-0.324,0.276-0.531,0.564-0.64
		c2.392-0.897,4.705-1.064,6.992,0.434C269.725,230.56,270.56,232.417,271.764,234.025z M274.322,222.815
		c-1.783,0.927-3.34,2.238-5.454,2.516c-2.71,0.357-4.722-0.796-6.488-2.643c-0.212-0.223-0.45-0.567-0.23-0.821
		c0.287-0.332,0.527,0.116,0.788,0.219c0.867,0.341,1.714,0.744,2.599,1.029c4.264,1.375,7.03-0.752,9.331-4.005
		c2.151-3.041,2.301-6.208,0.826-9.568c-1.277-2.908-3.422-4.812-6.125-6.368c1.76-2.575,2.867-5.221,2.756-8.395
		c-0.129-3.667-1.639-6.456-4.896-8.262c-3.485-1.933-6.9-2.649-10.145,0.439c-0.674,0.641-1.262,1.371-1.896,2.055
		c-0.19,0.206-0.211,0.713-0.614,0.54c-0.308-0.134-0.244-0.547-0.148-0.84c0.79-2.43,2.102-4.342,4.699-5.196
		c2.025-0.666,3.997-0.161,6.005-0.099c3.563,0.109,5.648,2.184,7.252,4.887c0.287,0.696,0.554,1.26,0.755,1.848
		c1.23,3.597,1.561,7.253,0.886,11.022c-0.058,0.326-0.114,0.652-0.167,0.979c0.189,0.271,0.381,0.541,0.575,0.809
		c2.243,3.103,3.532,6.541,3.983,10.315c0.074,0.616,0.079,1.241,0.122,1.992C278.464,218.396,277.486,221.17,274.322,222.815z"/>
	<path d="M283.609,206.925c-0.528-2.308-1.517-4.367-2.651-6.352c0.161-2.28,0.158-4.564-0.367-6.872
		c-0.738-3.24-1.283-6.526-2.858-9.498c-2.207-4.161-5.38-7.112-10.088-8.35c-0.58-0.153-1.142-0.247-1.693-0.289
		c0.083-0.546,0.116-1.115,0.096-1.714c-0.159-4.866-2.33-8.617-5.896-11.694c-2.546-2.197-5.629-3.459-8.623-4.9
		c-2.134-1.026-4.359-1.537-6.619-1.888c-1.682-1.547-3.469-2.969-5.602-3.998c-2.993-1.443-5.902-3.066-9.207-3.687
		c-4.629-0.87-8.915-0.228-12.819,2.681c-0.48,0.358-0.904,0.739-1.28,1.145c-0.376-0.405-0.8-0.786-1.281-1.145
		c-3.904-2.909-8.189-3.551-12.818-2.681c-3.306,0.621-6.215,2.244-9.208,3.687c-2.133,1.028-3.92,2.45-5.603,3.998
		c-2.258,0.351-4.485,0.861-6.618,1.888c-2.994,1.44-6.077,2.703-8.624,4.9c-3.566,3.077-5.736,6.828-5.896,11.694
		c-0.02,0.599,0.014,1.168,0.096,1.714c-0.552,0.042-1.113,0.136-1.693,0.289c-4.709,1.238-7.882,4.189-10.089,8.35
		c-1.575,2.972-2.12,6.258-2.858,9.498c-0.526,2.308-0.528,4.592-0.368,6.872c-1.134,1.985-2.123,4.043-2.65,6.352
		c-0.741,3.239-1.676,6.437-1.546,9.797c0.183,4.707,1.762,8.742,5.467,11.901c0.456,0.389,0.921,0.717,1.4,0.994
		c-0.312,0.457-0.588,0.955-0.831,1.503c-1.968,4.454-1.64,8.774,0.238,13.094c1.341,3.084,3.571,5.56,5.644,8.156
		c1.477,1.851,3.261,3.276,5.144,4.572c0.845,2.124,1.838,4.181,3.313,6.032c2.07,2.599,3.987,5.323,6.696,7.317
		c3.793,2.792,7.933,4.073,12.712,3.146c0.589-0.114,1.136-0.273,1.651-0.475c0.163,0.528,0.379,1.055,0.657,1.587
		c2.255,4.315,5.838,6.752,10.386,7.978c3.248,0.874,6.573,0.674,9.896,0.673c2.367-0.001,4.595-0.507,6.782-1.171
		c2.187,0.664,4.414,1.17,6.782,1.171c3.323,0.001,6.648,0.201,9.895-0.673c4.548-1.225,8.131-3.663,10.386-7.978
		c0.278-0.532,0.495-1.059,0.658-1.587c0.515,0.202,1.062,0.361,1.65,0.475c4.779,0.927,8.919-0.354,12.712-3.146
		c2.708-1.994,4.625-4.718,6.696-7.317c1.476-1.852,2.469-3.908,3.313-6.032c1.883-1.296,3.667-2.722,5.144-4.572
		c2.073-2.597,4.302-5.072,5.644-8.156c1.878-4.319,2.206-8.64,0.238-13.094c-0.243-0.549-0.52-1.046-0.831-1.503
		c0.479-0.277,0.944-0.605,1.4-0.994c3.705-3.159,5.285-7.194,5.466-11.901C285.285,213.362,284.35,210.164,283.609,206.925z
		 M281.595,223.242c-1.453,2.673-3.455,4.803-6.31,5.69c2.188,2.037,3.067,4.825,3.216,7.863c0.126,2.569-0.514,5.158-1.649,7.554
		c-1.209,2.485-2.694,4.802-4.554,6.846c-1.638,1.8-3.43,3.398-5.327,4.853c-0.996,2.173-2.156,4.276-3.546,6.273
		c-1.579,2.267-3.507,4.23-5.661,5.963c-2.083,1.641-4.465,2.84-6.998,3.289c-2.995,0.531-5.909,0.293-8.382-1.385
		c-0.229,2.98-1.861,5.407-4.143,7.417c-1.93,1.7-4.353,2.814-6.935,3.42c-2.697,0.604-5.435,0.888-8.191,0.708
		c-2.429-0.158-4.795-0.562-7.115-1.139c-2.32,0.577-4.688,0.981-7.116,1.139c-2.757,0.18-5.495-0.104-8.192-0.708
		c-2.581-0.605-5.004-1.72-6.935-3.42c-2.282-2.01-3.913-4.437-4.143-7.417c-2.474,1.679-5.387,1.916-8.382,1.385
		c-2.533-0.449-4.915-1.648-6.998-3.289c-2.154-1.732-4.082-3.696-5.66-5.963c-1.391-1.998-2.55-4.1-3.546-6.273
		c-1.898-1.455-3.689-3.053-5.327-4.853c-1.86-2.043-3.345-4.36-4.554-6.846c-1.136-2.396-1.776-4.985-1.65-7.554
		c0.149-3.038,1.029-5.826,3.216-7.863c-2.854-0.887-4.856-3.017-6.309-5.69c-1.228-2.26-1.775-4.87-1.791-7.521
		c0.011-2.764,0.344-5.496,1.132-8.144c0.695-2.333,1.615-4.55,2.694-6.684c-0.046-2.391,0.086-4.788,0.473-7.191
		c0.438-2.728,1.324-5.333,2.513-7.829c1.165-2.382,2.791-4.497,4.878-6c2.468-1.778,5.196-2.828,8.152-2.389
		c-1.086-2.785-0.669-5.678,0.515-8.48c1.001-2.37,2.701-4.425,4.764-6.09c2.168-1.715,4.511-3.158,7.073-4.192
		c2.256-0.911,4.564-1.574,6.905-2.061c1.84-1.526,3.798-2.917,5.917-4.114c2.406-1.358,4.995-2.291,7.688-2.916
		c2.588-0.575,5.255-0.622,7.731,0.072c2.929,0.821,5.451,2.299,6.951,4.885c1.5-2.585,4.022-4.063,6.95-4.885
		c2.477-0.694,5.144-0.647,7.732-0.072c2.693,0.625,5.281,1.558,7.688,2.916c2.12,1.196,4.077,2.587,5.917,4.114
		c2.341,0.487,4.648,1.15,6.905,2.061c2.562,1.034,4.905,2.477,7.073,4.192c2.063,1.666,3.763,3.721,4.764,6.09
		c1.184,2.802,1.602,5.695,0.515,8.48c2.957-0.439,5.685,0.611,8.153,2.389c2.087,1.503,3.712,3.618,4.877,6
		c1.189,2.495,2.075,5.101,2.513,7.829c0.386,2.403,0.519,4.8,0.473,7.191c1.079,2.134,2,4.351,2.694,6.684
		c0.789,2.648,1.122,5.379,1.133,8.144C283.371,218.372,282.823,220.982,281.595,223.242z"/>
</g>
</svg>
